<svg width="33" height="44" viewBox="0 0 33 44" fill="none" xmlns="http://www.w3.org/2000/svg">
<path d="M30.0666 2.93334H25.3865L24.5278 1.21588C24.3462 0.849611 24.0656 0.541555 23.7178 0.326649C23.3701 0.111742 22.9691 -0.00141396 22.5603 1.33373e-05H9.70639C9.29759 -0.00141396 8.89656 0.111742 8.54879 0.326649C8.20103 0.541555 7.92044 0.849611 7.73886 1.21588L6.88013 2.93334H2.2C1.61652 2.93334 1.05694 3.16513 0.644364 3.57771C0.231785 3.99029 0 4.54987 0 5.13334V38.8667C0 39.4501 0.231785 40.0097 0.644364 40.4223C1.05694 40.8349 1.61652 41.0667 2.2 41.0667H6.88013L7.73886 42.7841C7.92044 43.1504 8.20103 43.4584 8.54879 43.6734C8.89656 43.8883 9.29759 44.0014 9.70639 44H22.5603C22.9691 44.0014 23.3701 43.8883 23.7178 43.6734C24.0656 43.4584 24.3462 43.1504 24.5278 42.7841L25.3865 41.0667H30.0666C30.6501 41.0667 31.2097 40.8349 31.6223 40.4223C32.0349 40.0097 32.2666 39.4501 32.2666 38.8667V5.13334C32.2666 4.54987 32.0349 3.99029 31.6223 3.57771C31.2097 3.16513 30.6501 2.93334 30.0666 2.93334ZM30.8 38.8667C30.8 39.0611 30.7227 39.2477 30.5852 39.3852C30.4477 39.5227 30.2611 39.6 30.0666 39.6H24.9333C24.7964 39.5992 24.662 39.6368 24.5454 39.7085C24.4288 39.7802 24.3345 39.8831 24.2733 40.0055L23.2122 42.1278C23.1513 42.2496 23.0578 42.352 22.942 42.4236C22.8262 42.4953 22.6927 42.5332 22.5566 42.5333H9.70639C9.57024 42.5332 9.4368 42.4953 9.32101 42.4236C9.20522 42.352 9.11165 42.2496 9.05079 42.1278L7.99333 40.0055C7.93213 39.8831 7.83788 39.7802 7.72124 39.7085C7.6046 39.6368 7.47023 39.5992 7.33333 39.6H2.2C2.00551 39.6 1.81898 39.5227 1.68145 39.3852C1.54393 39.2477 1.46667 39.0611 1.46667 38.8667V5.13334C1.46667 4.93885 1.54393 4.75233 1.68145 4.6148C1.81898 4.47727 2.00551 4.40001 2.2 4.40001H7.33333C7.4696 4.40007 7.6032 4.36216 7.71913 4.29053C7.83507 4.2189 7.92875 4.11638 7.98966 3.99448L9.05079 1.87221C9.11165 1.75042 9.20522 1.64797 9.32101 1.57635C9.4368 1.50473 9.57024 1.46675 9.70639 1.46668H22.5603C22.6964 1.46675 22.8298 1.50473 22.9456 1.57635C23.0614 1.64797 23.155 1.75042 23.2159 1.87221L24.277 3.99448C24.3379 4.11638 24.4316 4.2189 24.5475 4.29053C24.6634 4.36216 24.797 4.40007 24.9333 4.40001H30.0666C30.2611 4.40001 30.4477 4.47727 30.5852 4.6148C30.7227 4.75233 30.8 4.93885 30.8 5.13334V38.8667Z" fill="white"/>
<path d="M3.66693 27.1333H5.13359C5.32808 27.1333 5.51461 27.0561 5.65214 26.9185C5.78966 26.781 5.86693 26.5945 5.86693 26.4C5.86693 26.2055 5.78966 26.019 5.65214 25.8814C5.51461 25.7439 5.32808 25.6667 5.13359 25.6667H4.40026V18.3333H5.13359C5.32808 18.3333 5.51461 18.2561 5.65214 18.1185C5.78966 17.981 5.86693 17.7945 5.86693 17.6C5.86693 17.4055 5.78966 17.219 5.65214 17.0815C5.51461 16.9439 5.32808 16.8667 5.13359 16.8667H3.66693C3.47243 16.8667 3.28591 16.9439 3.14838 17.0815C3.01086 17.219 2.93359 17.4055 2.93359 17.6V26.4C2.93359 26.5945 3.01086 26.781 3.14838 26.9185C3.28591 27.0561 3.47243 27.1333 3.66693 27.1333Z" fill="white"/>
<path d="M28.6004 16.8667H27.1337C26.9392 16.8667 26.7527 16.9439 26.6152 17.0815C26.4777 17.219 26.4004 17.4055 26.4004 17.6C26.4004 17.7945 26.4777 17.981 26.6152 18.1185C26.7527 18.2561 26.9392 18.3333 27.1337 18.3333H27.8671V25.6667H27.1337C26.9392 25.6667 26.7527 25.7439 26.6152 25.8814C26.4777 26.019 26.4004 26.2055 26.4004 26.4C26.4004 26.5945 26.4777 26.781 26.6152 26.9185C26.7527 27.0561 26.9392 27.1333 27.1337 27.1333H28.6004C28.7949 27.1333 28.9814 27.0561 29.1189 26.9185C29.2565 26.781 29.3337 26.5945 29.3337 26.4V17.6C29.3337 17.4055 29.2565 17.219 29.1189 17.0815C28.9814 16.9439 28.7949 16.8667 28.6004 16.8667Z" fill="white"/>
<path d="M28.6002 5.13335H3.66693C3.47243 5.13335 3.28591 5.21061 3.14838 5.34813C3.01086 5.48566 2.93359 5.67219 2.93359 5.86668V14.6667C2.93359 14.8612 3.01086 15.0477 3.14838 15.1852C3.28591 15.3227 3.47243 15.4 3.66693 15.4H6.60026C6.79475 15.4 6.98128 15.3227 7.1188 15.1852C7.25633 15.0477 7.33359 14.8612 7.33359 14.6667C7.33359 14.4722 7.25633 14.2857 7.1188 14.1481C6.98128 14.0106 6.79475 13.9333 6.60026 13.9333H4.40026V6.60001H27.8669V13.9333H25.6669C25.4724 13.9333 25.2859 14.0106 25.1484 14.1481C25.0108 14.2857 24.9336 14.4722 24.9336 14.6667C24.9336 14.8612 25.0108 15.0477 25.1484 15.1852C25.2859 15.3227 25.4724 15.4 25.6669 15.4H28.6002C28.7947 15.4 28.9813 15.3227 29.1188 15.1852C29.2563 15.0477 29.3336 14.8612 29.3336 14.6667V5.86668C29.3336 5.67219 29.2563 5.48566 29.1188 5.34813C28.9813 5.21061 28.7947 5.13335 28.6002 5.13335Z" fill="white"/>
<path d="M28.6002 28.6H25.6669C25.4724 28.6 25.2859 28.6773 25.1484 28.8148C25.0108 28.9523 24.9336 29.1388 24.9336 29.3333C24.9336 29.5278 25.0108 29.7143 25.1484 29.8519C25.2859 29.9894 25.4724 30.0667 25.6669 30.0667H27.8669V37.4H4.40026V30.0667H6.60026C6.79475 30.0667 6.98128 29.9894 7.1188 29.8519C7.25633 29.7143 7.33359 29.5278 7.33359 29.3333C7.33359 29.1388 7.25633 28.9523 7.1188 28.8148C6.98128 28.6773 6.79475 28.6 6.60026 28.6H3.66693C3.47243 28.6 3.28591 28.6773 3.14838 28.8148C3.01086 28.9523 2.93359 29.1388 2.93359 29.3333V38.1333C2.93359 38.3278 3.01086 38.5143 3.14838 38.6519C3.28591 38.7894 3.47243 38.8667 3.66693 38.8667H28.6002C28.7947 38.8667 28.9813 38.7894 29.1188 38.6519C29.2563 38.5143 29.3336 38.3278 29.3336 38.1333V29.3333C29.3336 29.1388 29.2563 28.9523 29.1188 28.8148C28.9813 28.6773 28.7947 28.6 28.6002 28.6Z" fill="white"/>
<path d="M16.1338 32.2667C18.1644 32.2667 20.1494 31.6645 21.8377 30.5364C23.526 29.4083 24.8419 27.8049 25.619 25.9289C26.3961 24.0529 26.5994 21.9886 26.2032 19.9971C25.8071 18.0055 24.8293 16.1762 23.3935 14.7404C21.9577 13.3046 20.1283 12.3268 18.1368 11.9306C16.1452 11.5345 14.081 11.7378 12.205 12.5148C10.329 13.2919 8.72555 14.6078 7.59743 16.2962C6.46932 17.9845 5.86719 19.9694 5.86719 22C5.8701 24.722 6.9527 27.3317 8.87744 29.2564C10.8022 31.1812 13.4119 32.2637 16.1338 32.2667ZM16.1338 13.2C17.8743 13.2 19.5757 13.7161 21.0229 14.6831C22.47 15.65 23.5979 17.0244 24.264 18.6324C24.93 20.2404 25.1043 22.0098 24.7648 23.7168C24.4252 25.4238 23.5871 26.9918 22.3564 28.2225C21.1257 29.4532 19.5577 30.2914 17.8506 30.6309C16.1436 30.9705 14.3742 30.7962 12.7662 30.1301C11.1582 29.4641 9.78388 28.3362 8.81692 26.889C7.84996 25.4419 7.33385 23.7405 7.33385 22C7.33638 19.6669 8.26433 17.43 9.9141 15.7803C11.5639 14.1305 13.8007 13.2025 16.1338 13.2Z" fill="white"/>
<path d="M13.2 23.4667H14.5691L13.9392 28.5091C13.9185 28.6758 13.9557 28.8446 14.0446 28.9872C14.1335 29.1298 14.2686 29.2375 14.4274 29.2924C14.5862 29.3473 14.759 29.3459 14.917 29.2887C15.0749 29.2314 15.2084 29.1216 15.2951 28.9777L19.6951 21.6443C19.762 21.5331 19.7981 21.4061 19.7998 21.2763C19.8015 21.1465 19.7687 21.0186 19.7048 20.9056C19.6409 20.7926 19.5481 20.6986 19.436 20.6332C19.3239 20.5678 19.1965 20.5334 19.0667 20.5333H17.6975L18.3275 15.4909C18.3481 15.3242 18.3109 15.1554 18.222 15.0128C18.1332 14.8702 17.998 14.7625 17.8392 14.7076C17.6804 14.6527 17.5076 14.6541 17.3496 14.7113C17.1917 14.7686 17.0582 14.8784 16.9715 15.0223L12.5715 22.3557C12.5047 22.4669 12.4686 22.5939 12.4669 22.7237C12.4652 22.8535 12.4979 22.9814 12.5618 23.0944C12.6257 23.2074 12.7185 23.3014 12.8306 23.3668C12.9427 23.4322 13.0702 23.4666 13.2 23.4667ZM16.4413 18.7565L16.1392 21.1765C16.1264 21.2796 16.1357 21.3842 16.1664 21.4835C16.1971 21.5827 16.2486 21.6743 16.3173 21.7522C16.3861 21.83 16.4707 21.8924 16.5654 21.9351C16.6601 21.9778 16.7628 22 16.8667 22H17.7709L15.8253 25.2435L16.1275 22.8235C16.1402 22.7204 16.131 22.6158 16.1002 22.5165C16.0695 22.4173 16.0181 22.3257 15.9493 22.2478C15.8805 22.17 15.796 22.1076 15.7013 22.0649C15.6066 22.0222 15.5039 22 15.4 22H14.4958L16.4413 18.7565Z" fill="white"/>
</svg>
