<svg width="45" height="28" viewBox="0 0 45 28" fill="none" xmlns="http://www.w3.org/2000/svg">
<path d="M15.3656 13.2902H11.6924C11.4539 13.2902 11.2251 13.3849 11.0564 13.5536C10.8877 13.7223 10.793 13.9511 10.793 14.1896C10.793 14.4281 10.8877 14.6569 11.0564 14.8256C11.2251 14.9943 11.4539 15.089 11.6924 15.089H15.3656C15.9173 15.0895 16.4466 14.8709 16.8372 14.4813C17.2278 14.0918 17.4478 13.563 17.4487 13.0113V5.66476C17.4482 5.1137 17.2292 4.58532 16.8398 4.1955C16.4503 3.80567 15.9221 3.58622 15.371 3.58527H11.6924C11.4539 3.58527 11.2251 3.68003 11.0564 3.84871C10.8877 4.01738 10.793 4.24616 10.793 4.4847C10.793 4.72325 10.8877 4.95202 11.0564 5.1207C11.2251 5.28937 11.4539 5.38414 11.6924 5.38414H15.3656C15.4398 5.38461 15.5107 5.41439 15.5629 5.46696C15.6151 5.51954 15.6445 5.59064 15.6445 5.66476V8.43322H11.6924C11.4539 8.43322 11.2251 8.52798 11.0564 8.69666C10.8877 8.86533 10.793 9.09411 10.793 9.33266C10.793 9.5712 10.8877 9.79997 11.0564 9.96865C11.2251 10.1373 11.4539 10.2321 11.6924 10.2321H15.6499V13.0059C15.6506 13.0435 15.6437 13.0808 15.6297 13.1156C15.6157 13.1504 15.5948 13.182 15.5682 13.2086C15.5417 13.2351 15.5101 13.256 15.4753 13.27C15.4405 13.2841 15.4032 13.2909 15.3656 13.2902Z" fill="#4630B2"/>
<path d="M25.9353 13.0113V10.5163C25.9358 9.96457 25.7173 9.43527 25.3277 9.04466C24.9381 8.65406 24.4093 8.43411 23.8577 8.43316H21.0821V5.6647C21.0821 5.59027 21.1116 5.51889 21.1642 5.46627C21.2169 5.41364 21.2882 5.38407 21.3627 5.38407H25.0359C25.2745 5.38407 25.5032 5.28931 25.6719 5.12064C25.8406 4.95196 25.9353 4.72318 25.9353 4.48464C25.9353 4.24609 25.8406 4.01732 25.6719 3.84864C25.5032 3.67997 25.2745 3.58521 25.0359 3.58521H21.3627C20.8115 3.58616 20.2831 3.80555 19.8933 4.19533C19.5035 4.5851 19.2842 5.11347 19.2832 5.6647V13.0113C19.2846 13.5622 19.5042 14.0901 19.8939 14.4795C20.2837 14.8689 20.8118 15.088 21.3627 15.089H23.8577C24.4084 15.088 24.9363 14.8688 25.3258 14.4794C25.7152 14.0899 25.9344 13.562 25.9353 13.0113ZM24.1365 13.0113C24.1365 13.0852 24.1071 13.1562 24.0548 13.2084C24.0025 13.2607 23.9316 13.2901 23.8577 13.2901H21.3627C21.3259 13.2903 21.2895 13.2833 21.2554 13.2694C21.2214 13.2555 21.1904 13.235 21.1644 13.2091C21.1383 13.1832 21.1176 13.1523 21.1034 13.1184C21.0893 13.0845 21.0821 13.0481 21.0821 13.0113V10.232H23.8577C23.9316 10.232 24.0025 10.2614 24.0548 10.3137C24.1071 10.366 24.1365 10.4369 24.1365 10.5109V13.0113Z" fill="#4630B2"/>
<path d="M30.4231 15.089H31.7777C32.4801 15.089 33.1538 14.8101 33.6507 14.3136C34.1475 13.8171 34.4269 13.1435 34.4274 12.4411V6.2332C34.4264 5.53091 34.1469 4.85768 33.6501 4.36125C33.1534 3.86482 32.48 3.58574 31.7777 3.58527H30.4231C29.721 3.58622 29.0479 3.86544 28.5512 4.36177C28.0545 4.8581 27.7749 5.53105 27.7734 6.2332V12.4411C27.7744 13.1434 28.0539 13.8166 28.5507 14.3131C29.0474 14.8095 29.7209 15.0886 30.4231 15.089ZM29.5723 6.2332C29.5728 6.00785 29.6626 5.79189 29.8221 5.63271C29.9816 5.47353 30.1978 5.38414 30.4231 5.38414H31.7777C32.003 5.38414 32.2192 5.47353 32.3787 5.63271C32.5382 5.79189 32.6281 6.00785 32.6285 6.2332V12.4411C32.6281 12.6665 32.5382 12.8824 32.3787 13.0416C32.2192 13.2008 32.003 13.2902 31.7777 13.2902H30.4231C30.1978 13.2902 29.9816 13.2008 29.8221 13.0416C29.6626 12.8824 29.5728 12.6665 29.5723 12.4411V6.2332Z" fill="#4630B2"/>
<path d="M37.1367 4.87854C37.6192 4.87889 38.0911 4.73609 38.4925 4.46819C38.8939 4.2003 39.2068 3.81936 39.3917 3.37357C39.5765 2.92778 39.625 2.43717 39.5309 1.96383C39.4369 1.49049 39.2045 1.05569 38.8633 0.714446C38.522 0.3732 38.0872 0.140845 37.6139 0.0467832C37.1406 -0.0472791 36.65 0.00117848 36.2042 0.186024C35.7584 0.370869 35.3774 0.683795 35.1096 1.08521C34.8417 1.48662 34.6989 1.95847 34.6992 2.44107C34.7002 3.08723 34.9573 3.70666 35.4142 4.16357C35.8711 4.62047 36.4905 4.87758 37.1367 4.87854ZM37.1367 1.80067C37.2634 1.80031 37.3874 1.83757 37.4929 1.90772C37.5985 1.97787 37.6808 2.07776 37.7296 2.19475C37.7783 2.31173 37.7913 2.44055 37.7668 2.5649C37.7423 2.68924 37.6814 2.80351 37.5919 2.89326C37.5024 2.983 37.3883 3.04417 37.2641 3.06902C37.1398 3.09388 37.0109 3.0813 36.8938 3.03289C36.7767 2.98447 36.6766 2.90239 36.6061 2.79704C36.5357 2.69169 36.4981 2.5678 36.4981 2.44107C36.4978 2.35705 36.5142 2.27382 36.5462 2.19613C36.5781 2.11845 36.6251 2.04784 36.6845 1.98835C36.7438 1.92886 36.8143 1.88166 36.8919 1.84945C36.9695 1.81725 37.0526 1.80067 37.1367 1.80067Z" fill="#4630B2"/>
<path d="M20.0464 19.9963C19.9634 19.9104 19.8642 19.8419 19.7544 19.7947C19.6447 19.7476 19.5267 19.7228 19.4072 19.7217C19.2878 19.7207 19.1694 19.7435 19.0588 19.7887C18.9483 19.8339 18.8479 19.9007 18.7634 19.9851C18.679 20.0696 18.6122 20.17 18.567 20.2806C18.5218 20.3911 18.499 20.5095 18.5 20.629C18.5011 20.7484 18.5259 20.8664 18.573 20.9761C18.6202 21.0859 18.6887 21.1851 18.7746 21.2681L20.2766 22.7684C9.36841 22.4392 1.79885 19.7067 1.79885 17.4095C1.79885 16.5731 3.05804 15.2653 6.57839 14.0996C6.6906 14.0625 6.7944 14.0037 6.88388 13.9265C6.97335 13.8493 7.04674 13.7552 7.09986 13.6496C7.15298 13.5441 7.18478 13.4291 7.19346 13.3112C7.20214 13.1933 7.18751 13.0749 7.15042 12.9627C7.11334 12.8505 7.05451 12.7467 6.97731 12.6572C6.9001 12.5678 6.80603 12.4944 6.70046 12.4412C6.59489 12.3881 6.47989 12.3563 6.36203 12.3476C6.24417 12.339 6.12576 12.3536 6.01355 12.3907C2.07947 13.6931 0 15.4272 0 17.4095C0 21.9481 10.4855 24.2902 20.3468 24.5726L18.7746 26.1448C18.6057 26.3135 18.5107 26.5423 18.5106 26.781C18.5104 27.0197 18.605 27.2486 18.7737 27.4175C18.9423 27.5864 19.1712 27.6814 19.4098 27.6816C19.6485 27.6817 19.8775 27.5871 20.0464 27.4184L23.1224 24.3424C23.291 24.1737 23.3857 23.945 23.3857 23.7065C23.3857 23.468 23.291 23.2392 23.1224 23.0706L20.0464 19.9963Z" fill="#4630B2"/>
<path d="M38.9587 12.3908C38.8457 12.3498 38.7255 12.3319 38.6054 12.3381C38.4853 12.3444 38.3677 12.3746 38.2595 12.4271C38.1513 12.4796 38.0547 12.5533 37.9755 12.6437C37.8963 12.7342 37.836 12.8396 37.7982 12.9538C37.7604 13.068 37.7459 13.1886 37.7556 13.3084C37.7652 13.4283 37.7988 13.545 37.8543 13.6517C37.9099 13.7584 37.9862 13.8528 38.0789 13.9295C38.1716 14.0061 38.2787 14.0634 38.3939 14.0979C41.9142 15.269 43.1734 16.5732 43.1734 17.4096C43.1734 19.5683 36.622 22.2018 26.0412 22.7217C25.9231 22.7245 25.8067 22.7506 25.6986 22.7984C25.5906 22.8462 25.493 22.9149 25.4115 23.0004C25.2469 23.1731 25.1576 23.4042 25.1633 23.6427C25.1691 23.8813 25.2693 24.1078 25.442 24.2724C25.6148 24.437 25.8458 24.5263 26.0844 24.5206H26.1275C35.5067 24.0583 44.9723 21.682 44.9723 17.4096C44.9723 15.4273 42.8928 13.6932 38.9587 12.3908Z" fill="#4630B2"/>
</svg>
