<svg width="36" height="36" viewBox="0 0 36 36" fill="none" xmlns="http://www.w3.org/2000/svg">
<path d="M34.2 25.2H31.8C31.4688 25.2 31.2 24.9312 31.2 24.6C31.2 24.2688 31.4688 24 31.8 24H34.2C34.53 24 34.8 23.73 34.8 23.4V1.8C34.8 1.47 34.53 1.2 34.2 1.2H1.8C1.47 1.2 1.2 1.47 1.2 1.8V23.4C1.2 23.73 1.47 24 1.8 24H8.40001C8.73121 24 9.00001 24.2688 9.00001 24.6C9.00001 24.9312 8.73121 25.2 8.40001 25.2H1.8C0.807601 25.2 0 24.3924 0 23.4V1.8C0 0.8076 0.807601 0 1.8 0H34.2C35.1924 0 36 0.8076 36 1.8V23.4C36 24.3924 35.1924 25.2 34.2 25.2Z" fill="white"/>
<path d="M28.2003 31.0897C27.9543 31.0897 27.7227 30.9361 27.6351 30.6913C27.5235 30.3781 27.6867 30.0361 27.9987 29.9245C28.4775 29.7541 28.8003 29.3017 28.8003 28.8001V18.6001C28.8003 17.9377 28.2627 17.4001 27.6003 17.4001C26.9379 17.4001 26.4003 17.9377 26.4003 18.6001C26.4003 18.9313 26.1315 19.2001 25.8003 19.2001C25.4691 19.2001 25.2003 18.9313 25.2003 18.6001V17.4001C25.2003 16.7377 24.6627 16.2001 24.0003 16.2001C23.3379 16.2001 22.8003 16.7377 22.8003 17.4001C22.8003 17.7313 22.5315 18.0001 22.2003 18.0001C21.8691 18.0001 21.6003 17.7313 21.6003 17.4001V16.8001C21.6003 16.1377 21.0627 15.6001 20.4003 15.6001C19.7379 15.6001 19.2003 16.1377 19.2003 16.8001C19.2003 17.1313 18.9315 17.4001 18.6003 17.4001C18.2691 17.4001 18.0003 17.1313 18.0003 16.8001V8.40012C18.0003 7.73772 17.4627 7.20012 16.8003 7.20012C16.1379 7.20012 15.6003 7.73772 15.6003 8.40012V22.2001C15.6003 22.4797 15.4059 22.7233 15.1323 22.7845C14.8563 22.8529 14.5803 22.7113 14.4579 22.4593L12.3675 18.0877C12.1683 17.6569 11.8155 17.1121 11.2527 16.9381C10.8855 16.8229 10.4631 16.8697 9.9903 17.0761L11.7387 23.8501C12.2763 25.0885 14.0175 28.6861 15.2475 29.4061C15.5331 29.5741 15.6291 29.9413 15.4623 30.2281C15.2943 30.5125 14.9271 30.6061 14.6403 30.4429C12.8511 29.3941 10.8303 24.7621 10.6059 24.2365L8.7087 16.9141C8.6415 16.6549 8.7543 16.3837 8.9847 16.2469C10.1547 15.5581 11.0559 15.6193 11.6103 15.7921C12.3867 16.0345 13.0251 16.6525 13.4523 17.5765L14.4003 19.5553V8.40012C14.4003 7.07652 15.4767 6.00012 16.8003 6.00012C18.1239 6.00012 19.2003 7.07652 19.2003 8.40012V14.7229C19.5531 14.5177 19.9635 14.4001 20.4003 14.4001C21.2727 14.4001 22.0359 14.8669 22.4571 15.5641C22.8747 15.2125 23.4135 15.0001 24.0003 15.0001C25.0455 15.0001 25.9371 15.6721 26.2659 16.6069C26.6475 16.3501 27.1071 16.2001 27.6003 16.2001C28.9239 16.2001 30.0003 17.2765 30.0003 18.6001V28.8001C30.0003 29.8081 29.3583 30.7153 28.4019 31.0549C28.3347 31.0789 28.2675 31.0897 28.2003 31.0897Z" fill="white"/>
<path d="M29.4004 36.0001C29.0692 36.0001 28.8004 35.7313 28.8004 35.4001V32.4001H15.6004V35.4001C15.6004 35.7313 15.3316 36.0001 15.0004 36.0001C14.6692 36.0001 14.4004 35.7313 14.4004 35.4001V31.8001C14.4004 31.4689 14.6692 31.2001 15.0004 31.2001H29.4004C29.7316 31.2001 30.0004 31.4689 30.0004 31.8001V35.4001C30.0004 35.7313 29.7316 36.0001 29.4004 36.0001Z" fill="white"/>
<path d="M21 9.0001C20.6688 9.0001 20.4 8.7313 20.4 8.4001C20.4 6.4153 18.7848 4.8001 16.8 4.8001C14.8152 4.8001 13.2 6.4153 13.2 8.4001C13.2 8.7313 12.9312 9.0001 12.6 9.0001C12.2688 9.0001 12 8.7313 12 8.4001C12 5.7529 14.1528 3.6001 16.8 3.6001C19.4472 3.6001 21.6 5.7529 21.6 8.4001C21.6 8.7313 21.3312 9.0001 21 9.0001Z" fill="white"/>
<path d="M23.1542 10.7903C23.1002 10.7903 23.0462 10.7831 22.9922 10.7675C22.6718 10.6787 22.487 10.3463 22.5758 10.0283C23.1614 7.94031 22.5734 5.69031 21.0422 4.15671C20.8082 3.92271 20.8082 3.54231 21.0422 3.30831C21.2762 3.07431 21.6566 3.07431 21.8906 3.30831C23.729 5.14791 24.4346 7.84671 23.7314 10.3511C23.6582 10.6175 23.417 10.7903 23.1542 10.7903Z" fill="white"/>
<path d="M10.4392 10.7714C10.1752 10.7714 9.93399 10.5962 9.86199 10.3322C9.16959 7.83378 9.87879 5.14338 11.71 3.30978C11.944 3.07578 12.3244 3.07578 12.5584 3.30978C12.7924 3.54378 12.7924 3.92418 12.5584 4.15818C11.0308 5.68578 10.4404 7.92858 11.0176 10.0106C11.1064 10.331 10.9192 10.661 10.6 10.7486C10.546 10.7642 10.492 10.7714 10.4392 10.7714Z" fill="white"/>
<path d="M32.9999 14.4C32.6687 14.4 32.3999 14.1312 32.3999 13.8V11.4C32.3999 11.0688 32.6687 10.8 32.9999 10.8C33.3311 10.8 33.5999 11.0688 33.5999 11.4V13.8C33.5999 14.1312 33.3311 14.4 32.9999 14.4Z" fill="white"/>
</svg>
