<svg width="36" height="36" viewBox="0 0 36 36" fill="none" xmlns="http://www.w3.org/2000/svg">
<path d="M3.25517 32.0086H3.30591C3.43968 32.796 3.84745 33.5107 4.45716 34.0266C5.06687 34.5424 5.83929 34.8261 6.63793 34.8276H29.1897C29.9883 34.8261 30.7607 34.5424 31.3704 34.0266C31.9801 33.5107 32.3879 32.796 32.5217 32.0086H32.5724C33.1705 32.0086 33.7441 31.771 34.1671 31.3481C34.59 30.9252 34.8276 30.3516 34.8276 29.7534V15.0948C34.8276 14.4967 34.59 13.9231 34.1671 13.5002C33.7441 13.0773 33.1705 12.8397 32.5724 12.8397H32.5217C32.3879 12.0523 31.9801 11.3376 31.3704 10.8217C30.7607 10.3059 29.9883 10.0222 29.1897 10.0207H24.0591C23.9283 9.3844 23.5821 8.81268 23.0788 8.40188C22.5756 7.99109 21.9462 7.76634 21.2966 7.76552H20.169V4.94655H22.4241C23.0222 4.94655 23.5959 4.70895 24.0188 4.28603C24.4417 3.8631 24.6793 3.28949 24.6793 2.69138V2.12759C24.6793 1.82853 24.5605 1.54173 24.3491 1.33026C24.1376 1.1188 23.8508 1 23.5517 1H12.2759C11.9768 1 11.69 1.1188 11.4785 1.33026C11.2671 1.54173 11.1483 1.82853 11.1483 2.12759V2.69138C11.1483 3.28949 11.3859 3.8631 11.8088 4.28603C12.2317 4.70895 12.8053 4.94655 13.4034 4.94655H15.6586V7.76552H14.531C13.8814 7.76634 13.252 7.99109 12.7487 8.40188C12.2455 8.81268 11.8993 9.3844 11.7684 10.0207H6.63793C5.83929 10.0222 5.06687 10.3059 4.45716 10.8217C3.84745 11.3376 3.43968 12.0523 3.30591 12.8397H3.25517C2.65706 12.8397 2.08345 13.0773 1.66052 13.5002C1.2376 13.9231 1 14.4967 1 15.0948L1 29.7534C1 30.3516 1.2376 30.9252 1.66052 31.3481C2.08345 31.771 2.65706 32.0086 3.25517 32.0086ZM33.7 15.0948V29.7534C33.7 30.0525 33.5812 30.3393 33.3697 30.5508C33.1583 30.7622 32.8715 30.881 32.5724 30.881V13.9672C32.8715 13.9672 33.1583 14.086 33.3697 14.2975C33.5812 14.509 33.7 14.7958 33.7 15.0948ZM12.2759 2.69138V2.12759H23.5517V2.69138C23.5517 2.99043 23.4329 3.27724 23.2215 3.4887C23.01 3.70017 22.7232 3.81897 22.4241 3.81897H13.4034C13.1044 3.81897 12.8176 3.70017 12.6061 3.4887C12.3947 3.27724 12.2759 2.99043 12.2759 2.69138ZM16.7862 4.94655H19.0414V7.76552H16.7862V4.94655ZM14.531 8.8931H21.2966C21.6451 8.89455 21.9847 9.00365 22.2689 9.20549C22.5531 9.40733 22.768 9.69205 22.8842 10.0207H12.9434C13.0596 9.69205 13.2745 9.40733 13.5587 9.20549C13.8429 9.00365 14.1825 8.89455 14.531 8.8931ZM4.38276 13.4034C4.38276 12.8053 4.62036 12.2317 5.04328 11.8088C5.46621 11.3859 6.03982 11.1483 6.63793 11.1483H29.1897C29.7878 11.1483 30.3614 11.3859 30.7843 11.8088C31.2072 12.2317 31.4448 12.8053 31.4448 13.4034V31.4448C31.4448 32.0429 31.2072 32.6165 30.7843 33.0395C30.3614 33.4624 29.7878 33.7 29.1897 33.7H6.63793C6.03982 33.7 5.46621 33.4624 5.04328 33.0395C4.62036 32.6165 4.38276 32.0429 4.38276 31.4448V13.4034ZM2.12759 15.0948C2.12759 14.7958 2.24639 14.509 2.45785 14.2975C2.66931 14.086 2.95612 13.9672 3.25517 13.9672V30.881C2.95612 30.881 2.66931 30.7622 2.45785 30.5508C2.24639 30.3393 2.12759 30.0525 2.12759 29.7534V15.0948Z" fill="white"/>
<path d="M17.9139 32.5723C19.921 32.5723 21.8831 31.9771 23.552 30.862C25.2209 29.7469 26.5216 28.162 27.2897 26.3076C28.0578 24.4533 28.2588 22.4128 27.8672 20.4442C27.4756 18.4756 26.5091 16.6674 25.0898 15.2481C23.6706 13.8289 21.8623 12.8623 19.8937 12.4708C17.9252 12.0792 15.8847 12.2802 14.0303 13.0483C12.176 13.8164 10.591 15.1171 9.47592 16.786C8.36081 18.4548 7.76563 20.4169 7.76562 22.424C7.76876 25.1146 8.83896 27.694 10.7414 29.5965C12.6439 31.499 15.2234 32.5692 17.9139 32.5723ZM17.9139 13.4033C19.698 13.4033 21.4421 13.9324 22.9255 14.9236C24.409 15.9148 25.5652 17.3237 26.2479 18.972C26.9307 20.6203 27.1093 22.434 26.7613 24.1839C26.4132 25.9337 25.5541 27.5411 24.2925 28.8026C23.0309 30.0642 21.4236 30.9233 19.6737 31.2714C17.9239 31.6195 16.1101 31.4408 14.4618 30.7581C12.8135 30.0753 11.4047 28.9191 10.4135 27.4357C9.42227 25.9522 8.89321 24.2082 8.89321 22.424C8.89605 20.0325 9.84735 17.7397 11.5384 16.0486C13.2295 14.3575 15.5223 13.4062 17.9139 13.4033Z" fill="white"/>
<path d="M17.9135 29.1895C19.2516 29.1895 20.5596 28.7927 21.6722 28.0493C22.7848 27.3059 23.6519 26.2493 24.164 25.013C24.6761 23.7768 24.81 22.4165 24.549 21.1041C24.2879 19.7917 23.6436 18.5862 22.6974 17.64C21.7512 16.6938 20.5457 16.0495 19.2334 15.7884C17.921 15.5274 16.5607 15.6614 15.3244 16.1734C14.0882 16.6855 13.0315 17.5527 12.2881 18.6652C11.5447 19.7778 11.1479 21.0859 11.1479 22.424C11.1499 24.2177 11.8633 25.9374 13.1317 27.2058C14.4 28.4741 16.1197 29.1875 17.9135 29.1895ZM17.9135 16.786C19.0285 16.786 20.1186 17.1167 21.0457 17.7362C21.9729 18.3557 22.6955 19.2362 23.1222 20.2664C23.549 21.2966 23.6606 22.4302 23.4431 23.5239C23.2255 24.6175 22.6886 25.6221 21.9001 26.4106C21.1116 27.1991 20.107 27.736 19.0134 27.9536C17.9197 28.1711 16.7861 28.0595 15.7559 27.6327C14.7257 27.206 13.8452 26.4834 13.2257 25.5562C12.6062 24.6291 12.2755 23.539 12.2755 22.424C12.2772 20.9292 12.8717 19.4961 13.9287 18.4392C14.9856 17.3822 16.4187 16.7877 17.9135 16.786Z" fill="white"/>
<path d="M17.9137 26.9344C18.8057 26.9344 19.6778 26.6699 20.4195 26.1743C21.1612 25.6787 21.7393 24.9742 22.0807 24.1501C22.4221 23.3259 22.5114 22.419 22.3373 21.5441C22.1633 20.6692 21.7337 19.8655 21.103 19.2347C20.4722 18.604 19.6685 18.1744 18.7936 18.0004C17.9187 17.8263 17.0118 17.9157 16.1876 18.257C15.3635 18.5984 14.6591 19.1765 14.1635 19.9182C13.6678 20.66 13.4033 21.532 13.4033 22.424C13.4047 23.6198 13.8803 24.7663 14.7259 25.6119C15.5714 26.4574 16.7179 26.933 17.9137 26.9344ZM17.9137 19.0413C18.5827 19.0413 19.2367 19.2397 19.793 19.6114C20.3493 19.9831 20.7829 20.5114 21.0389 21.1295C21.295 21.7476 21.3619 22.4278 21.2314 23.084C21.1009 23.7402 20.7787 24.3429 20.3056 24.816C19.8326 25.2891 19.2298 25.6113 18.5736 25.7418C17.9174 25.8723 17.2373 25.8053 16.6191 25.5493C16.001 25.2933 15.4727 24.8597 15.101 24.3034C14.7293 23.7471 14.5309 23.0931 14.5309 22.424C14.5318 21.5272 14.8885 20.6673 15.5227 20.0331C16.1569 19.3989 17.0168 19.0422 17.9137 19.0413Z" fill="white"/>
<path d="M16.2225 22.9878C16.372 22.9878 16.5154 22.9284 16.6211 22.8227C16.7269 22.7169 16.7863 22.5735 16.7863 22.424C16.7863 22.1249 16.9051 21.8381 17.1165 21.6267C17.328 21.4152 17.6148 21.2964 17.9139 21.2964C18.0634 21.2964 18.2068 21.237 18.3125 21.1313C18.4183 21.0255 18.4777 20.8821 18.4777 20.7326C18.4777 20.5831 18.4183 20.4397 18.3125 20.334C18.2068 20.2282 18.0634 20.1688 17.9139 20.1688C17.3158 20.1688 16.7421 20.4064 16.3192 20.8293C15.8963 21.2523 15.6587 21.8259 15.6587 22.424C15.6587 22.5735 15.7181 22.7169 15.8238 22.8227C15.9296 22.9284 16.073 22.9878 16.2225 22.9878Z" fill="white"/>
<path d="M6.63801 13.9671H8.32939C8.47892 13.9671 8.62232 13.9077 8.72805 13.8019C8.83378 13.6962 8.89318 13.5528 8.89318 13.4033C8.89318 13.2537 8.83378 13.1103 8.72805 13.0046C8.62232 12.8989 8.47892 12.8395 8.32939 12.8395H6.63801C6.48848 12.8395 6.34508 12.8989 6.23935 13.0046C6.13362 13.1103 6.07422 13.2537 6.07422 13.4033C6.07422 13.5528 6.13362 13.6962 6.23935 13.8019C6.34508 13.9077 6.48848 13.9671 6.63801 13.9671Z" fill="white"/>
</svg>
