<svg width="36" height="36" viewBox="0 0 36 36" fill="none" xmlns="http://www.w3.org/2000/svg">
<path d="M21.7893 15.4366C21.7893 15.1419 21.6055 14.8785 21.329 14.7767L13.1121 11.7522C12.9553 11.6946 12.7832 11.6946 12.6264 11.7522L4.40948 14.7766C4.13295 14.8784 3.94922 15.1418 3.94922 15.4365V20.6611C3.94922 23.2765 4.80795 25.818 6.43266 28.0107C7.95823 30.0697 10.0898 31.715 12.5967 32.7686C12.7699 32.8413 12.9686 32.8413 13.1417 32.7686C15.6487 31.7148 17.7803 30.0695 19.3059 28.0107C20.9305 25.818 21.7892 23.2766 21.7892 20.6611V15.4366H21.7893ZM20.383 20.6611C20.383 22.973 19.6198 25.2249 18.176 27.1735C16.8559 28.9551 15.0255 30.3961 12.8692 31.3545C10.7131 30.3962 8.88277 28.9553 7.56251 27.1735C6.11864 25.2248 5.3554 22.9729 5.3554 20.6611V15.927L12.8691 13.1614L20.3829 15.9271V20.6611H20.383Z" fill="white"/>
<path d="M30.4756 11.4574C30.4756 7.9064 27.5866 5.01746 24.0356 5.01746C22.3557 5.01746 20.7658 5.66047 19.5588 6.82801C18.5851 7.76992 17.9443 8.97178 17.7036 10.2811L13.1122 8.59125C12.9554 8.53359 12.7833 8.53359 12.6265 8.59125L1.46027 12.701C1.18373 12.8028 1 13.0662 1 13.3609V20.6342C1 23.8981 2.06341 27.0585 4.07519 29.7736C6.08676 32.4884 8.91902 34.5811 12.2658 35.8255C12.457 35.8966 12.6618 36 12.8693 36C13.0769 36 13.2818 35.8965 13.4732 35.8255C15.808 34.9572 17.8794 33.687 19.6298 32.0499C19.9134 31.7847 19.9283 31.3397 19.663 31.0561C19.3978 30.7726 18.9528 30.7576 18.6692 31.0228C17.0556 32.5321 15.1425 33.7044 12.9833 34.5073C12.9526 34.5188 12.9019 34.5493 12.8694 34.5493C12.837 34.5493 12.7864 34.5188 12.7558 34.5074C9.6651 33.3582 7.05419 31.4318 5.20511 28.9364C3.3741 26.4653 2.40625 23.5944 2.40625 20.6342V13.8514L12.8694 10.0003L23.3325 13.8514V20.6342C23.3325 22.5755 22.9192 24.4724 22.1038 26.2721C21.9436 26.6258 22.1004 27.0425 22.4541 27.2027C22.8078 27.3629 23.2245 27.206 23.3848 26.8524C24.2831 24.8692 24.7387 22.7771 24.7387 20.6342V17.8595C27.9601 17.508 30.4756 14.7712 30.4756 11.4574ZM24.7388 16.4429V13.3608C24.7388 13.0662 24.555 12.8027 24.2785 12.7009L19.0481 10.7757C19.1984 9.66042 19.7166 8.63196 20.5365 7.83876C21.4799 6.92624 22.7226 6.42371 24.0356 6.42371C26.8112 6.42371 29.0693 8.68181 29.0693 11.4574C29.0693 13.9948 27.1828 16.0998 24.7388 16.4429Z" fill="white"/>
<path d="M24.0356 3.67933C24.4239 3.67933 24.7388 3.36447 24.7388 2.9762V0.703129C24.7388 0.314861 24.4239 0 24.0356 0C23.6474 0 23.3325 0.314861 23.3325 0.703129V2.9762C23.3325 3.36454 23.6474 3.67933 24.0356 3.67933Z" fill="white"/>
<path d="M17.5413 5.95749C17.6786 6.09475 17.8585 6.16344 18.0385 6.16344C18.2184 6.16344 18.3983 6.09475 18.5357 5.95749C18.8102 5.68292 18.8102 5.2377 18.5357 4.96306L16.9284 3.35578C16.6537 3.08128 16.2087 3.08128 15.934 3.35578C15.6594 3.63035 15.6594 4.07557 15.934 4.35021L17.5413 5.95749Z" fill="white"/>
<path d="M30.5304 16.9578C30.2559 16.6834 29.8108 16.6833 29.536 16.9578C29.2614 17.2324 29.2614 17.6776 29.536 17.9522L31.1433 19.5596C31.2806 19.6968 31.4605 19.7655 31.6405 19.7655C31.8204 19.7655 32.0003 19.6968 32.1376 19.5596C32.4122 19.285 32.4122 18.8398 32.1376 18.5652L30.5304 16.9578Z" fill="white"/>
<path d="M30.0333 6.16344C30.2133 6.16344 30.3931 6.09475 30.5304 5.95749L32.1377 4.35021C32.4123 4.07564 32.4123 3.63042 32.1377 3.35578C31.8631 3.08128 31.418 3.08128 31.1433 3.35578L29.536 4.96306C29.2614 5.23763 29.2614 5.68285 29.536 5.95749C29.6734 6.09482 29.8533 6.16344 30.0333 6.16344Z" fill="white"/>
<path d="M34.7906 10.7545H32.5176C32.1293 10.7545 31.8145 11.0694 31.8145 11.4576C31.8145 11.8459 32.1293 12.1608 32.5176 12.1608H34.7906C35.1789 12.1608 35.4938 11.8459 35.4938 11.4576C35.4938 11.0694 35.179 10.7545 34.7906 10.7545Z" fill="white"/>
<path d="M9.92301 21.5771C9.64837 21.3026 9.20329 21.3026 8.92858 21.5771C8.65401 21.8517 8.65401 22.2969 8.92858 22.5715L11.3031 24.9461C11.5741 25.2169 12.0266 25.2169 12.2975 24.9461L17.558 19.6855C17.8326 19.411 17.8326 18.9657 17.558 18.6911C17.2834 18.4166 16.8383 18.4166 16.5636 18.6911L11.8003 23.4545L9.92301 21.5771Z" fill="white"/>
<path d="M21.8821 28.9019C21.7348 28.5485 21.318 28.3744 20.9637 28.5215C20.6097 28.6684 20.4371 29.0857 20.5834 29.4398C20.7295 29.7938 21.148 29.967 21.5017 29.8202C21.8567 29.6728 22.0275 29.2567 21.8821 28.9019Z" fill="white"/>
</svg>
