<svg width="38" height="36" viewBox="0 0 38 36" fill="none" xmlns="http://www.w3.org/2000/svg">
<path d="M24.2435 28.8809H26.802C27.106 28.8809 27.3525 28.6345 27.3525 28.3304C27.3525 28.0262 27.106 27.7798 26.802 27.7798H24.2435C23.9394 27.7798 23.6929 28.0262 23.6929 28.3304C23.6929 28.6345 23.9394 28.8809 24.2435 28.8809Z" fill="white"/>
<path d="M37.5862 12.9796C37.5862 12.6754 37.3397 12.429 37.0356 12.429H35.6768C35.3727 12.429 35.1262 12.6754 35.1262 12.9796C35.1262 13.2837 35.3727 13.5302 35.6768 13.5302H36.4851V18.8252H26.3784L28.2554 14.7031C28.5798 13.9906 29.2952 13.5302 30.0779 13.5302H33.2771C33.5811 13.5302 33.8277 13.2837 33.8277 12.9796C33.8277 12.6754 33.5811 12.429 33.2771 12.429H30.0779C28.8648 12.429 27.7561 13.1425 27.2533 14.2468L26.3335 16.2668H22.9641C21.9551 16.2668 21.1342 17.0876 21.1342 18.0966C21.1342 19.1055 21.9551 19.9264 22.9641 19.9264H24.1933L22.0434 22.0763C21.569 22.5508 21.267 23.1517 21.1691 23.803C19.6268 23.8183 18.2425 25.0367 18.2425 26.6339V28.9141C18.2425 29.8679 17.4666 30.6438 16.5128 30.6438C15.5591 30.6438 14.7831 29.868 14.7831 28.9141V26.6339C14.7831 25.2612 13.801 24.1135 12.5026 23.8567V13.0119C12.5026 12.7077 12.2561 12.4613 11.952 12.4613C11.648 12.4613 11.4015 12.7077 11.4015 13.0119V23.803H10.2226V22.0688C10.2226 20.5103 8.95469 19.2425 7.39626 19.2425H5.10673C3.5483 19.2425 2.28043 20.5103 2.28043 22.0688V26.6385C2.28043 28.1969 3.5483 29.4648 5.10673 29.4648H7.39619C8.95462 29.4648 10.2225 28.1969 10.2225 26.6385V24.9042H11.4014V30.6437H7.45117C7.14711 30.6437 6.90059 30.8901 6.90059 31.1943C6.90059 31.4984 7.14711 31.7449 7.45117 31.7449H11.4014V32.9245H1.10116V31.7449H5.05138C5.35545 31.7449 5.60196 31.4984 5.60196 31.1943C5.60196 30.8901 5.35545 30.6437 5.05138 30.6437H1.10116V6.66186H11.4014V10.6122C11.4014 10.9163 11.6479 11.1627 11.952 11.1627C12.256 11.1627 12.5026 10.9163 12.5026 10.6122V6.11128C12.5026 5.80714 12.256 5.5607 11.952 5.5607H11.3626V3.82631C11.3626 2.26787 10.0948 1 8.53633 1H3.96659C2.40816 1 1.14029 2.26787 1.14029 3.82631V5.56063H0.550579C0.246513 5.56063 0 5.80707 0 6.11121V33.475C0 33.7791 0.246513 34.0256 0.550579 34.0256H11.952C12.256 34.0256 12.5026 33.7791 12.5026 33.475V24.9939C13.1873 25.2243 13.6819 25.8724 13.6819 26.6339V28.9141C13.6819 30.4751 14.9518 31.745 16.5128 31.745C18.0737 31.745 19.3436 30.4751 19.3436 28.9141V26.6339C19.3436 25.5856 20.2347 25.0175 21.1342 24.9042V29.6533C21.1342 30.5657 21.822 31.3205 22.7063 31.4265V32.2117C22.7063 33.1966 23.5075 33.9978 24.4924 33.9978H28.1247C29.1096 33.9978 29.9108 33.1966 29.9108 32.2117V31.4393H37.0356C37.3396 31.4393 37.5861 31.1929 37.5861 30.8887L37.5862 12.9796ZM9.12134 26.6385C9.12134 27.5897 8.34744 28.3636 7.39619 28.3636H5.10673C4.15548 28.3636 3.38158 27.5897 3.38158 26.6385V22.0688C3.38158 21.1175 4.15548 20.3436 5.10673 20.3436H7.39619C8.34744 20.3436 9.12134 21.1175 9.12134 22.0688V23.803H7.94222V23.2134C7.94222 22.2812 7.18374 21.5227 6.2515 21.5227C5.31926 21.5227 4.56078 22.2812 4.56078 23.2134V25.4937C4.56078 26.426 5.31926 27.1844 6.2515 27.1844C7.18374 27.1844 7.94222 26.426 7.94222 25.4937V24.9042H9.12134V26.6385ZM6.84106 25.4937C6.84106 25.8189 6.57656 26.0833 6.2515 26.0833C5.92643 26.0833 5.66194 25.8188 5.66194 25.4937V23.2134C5.66194 22.8883 5.92643 22.6239 6.2515 22.6239C6.57656 22.6239 6.84106 22.8884 6.84106 23.2134V25.4937ZM2.24144 3.82631C2.24144 2.87505 3.01534 2.10116 3.96659 2.10116H8.53633C9.48758 2.10116 10.2615 2.87505 10.2615 3.82631V5.56056H2.24144V3.82631ZM31.0059 23.3115L27.3575 22.3995L25.0715 20.6052L25.7504 19.9263H36.4848V23.3115L31.0059 23.3115ZM24.7938 21.7871L26.77 23.3382C26.831 23.386 26.9013 23.4205 26.9765 23.4393L29.8554 24.159L28.8566 25.1579L24.7938 24.0702V21.7871ZM22.2354 18.0965C22.2354 17.6947 22.5623 17.3678 22.9641 17.3678H25.8319L25.1682 18.8252H22.9641C22.5622 18.8252 22.2354 18.4983 22.2354 18.0965ZM22.2354 29.6533V24.2711C22.2354 23.7361 22.4437 23.2332 22.822 22.8549L23.6927 21.9843V24.4927C23.6927 24.742 23.8601 24.9601 24.1008 25.0246L28.8788 26.3038C29.0687 26.3529 29.246 26.3054 29.4105 26.1613L31.159 24.4128H36.4849V26.5006H34.4719C32.7604 26.5006 31.368 27.893 31.368 29.6045V30.3382H22.9202C22.5426 30.3382 22.2354 30.0309 22.2354 29.6533ZM28.8095 32.2117C28.8095 32.5894 28.5023 32.8967 28.1246 32.8967H24.4923C24.1146 32.8967 23.8074 32.5894 23.8074 32.2117V31.4394H28.8095V32.2117H28.8095ZM36.4849 30.3382H32.4691V29.6044C32.4691 28.5001 33.3676 27.6017 34.4719 27.6017H36.4849V30.3382Z" fill="white"/>
<path d="M6.92175 17.7961L10.3422 12.0953C10.6259 11.6952 10.4065 11.2731 9.87007 11.2615H7.00023V8.39169C6.96764 7.74333 6.29468 7.62095 5.97755 8.10847L2.55713 13.8092C2.33976 14.1637 2.44988 14.643 3.02923 14.643H5.89907V17.5129C5.89907 18.2013 6.58832 18.3022 6.92175 17.7961ZM4.00163 13.5418L5.89907 10.3794V11.8121C5.89907 12.1162 6.14558 12.3627 6.44965 12.3627H8.89767L7.00023 15.5251V14.0924C7.00023 13.7882 6.75372 13.5418 6.44965 13.5418H4.00163Z" fill="white"/>
<path d="M7.79778 3.2804H4.70536C4.4013 3.2804 4.15479 3.52683 4.15479 3.83097C4.15479 4.13511 4.4013 4.38155 4.70536 4.38155H7.79778C8.10185 4.38155 8.34836 4.13511 8.34836 3.83097C8.34836 3.52683 8.10185 3.2804 7.79778 3.2804Z" fill="white"/>
</svg>
