<svg width="126" height="36" viewBox="0 0 126 36" fill="none" xmlns="http://www.w3.org/2000/svg">
<path d="M125.3 31.8482C125.3 33.7667 123.696 35.3207 121.712 35.3207H4.2929C2.30985 35.3207 0.700195 33.7667 0.700195 31.8482V4.15622C0.700195 2.23865 2.30985 0.679199 4.2929 0.679199H121.711C123.696 0.679199 125.299 2.23865 125.299 4.15622L125.3 31.8482Z" fill="black"/>
<path d="M121.333 0.721127C123.494 0.721127 125.252 2.4165 125.252 4.5V31.5C125.252 33.5835 123.494 35.2789 121.333 35.2789H4.66667C2.506 35.2789 0.747833 33.5835 0.747833 31.5V4.5C0.747833 2.4165 2.506 0.721127 4.66667 0.721127H121.333ZM121.333 3.8147e-06H4.66667C2.10117 3.8147e-06 0 2.02613 0 4.5V31.5C0 33.9739 2.10117 36 4.66667 36H121.333C123.899 36 126 33.9739 126 31.5V4.5C126 2.02613 123.899 3.8147e-06 121.333 3.8147e-06Z" fill="#A6A6A6"/>
<path d="M28.1193 17.8056C28.0923 14.9049 30.5824 13.4937 30.6963 13.428C29.286 11.4453 27.1001 11.1744 26.332 11.1528C24.4961 10.9665 22.7153 12.2121 21.7801 12.2121C20.8263 12.2121 19.3861 11.1708 17.834 11.2014C15.8367 11.2311 13.9681 12.3462 12.9433 14.0778C10.8284 17.6085 12.4057 22.797 14.432 25.6509C15.4456 27.0486 16.63 28.6092 18.1803 28.5543C19.6969 28.494 20.2635 27.6219 22.0937 27.6219C23.9072 27.6219 24.4392 28.5543 26.0203 28.5192C27.648 28.494 28.6728 27.1152 29.6509 25.7049C30.8223 24.1029 31.2927 22.5252 31.3113 22.4442C31.2731 22.4316 28.1501 21.2823 28.1193 17.8056Z" fill="white"/>
<path d="M25.1327 9.27544C25.9484 8.29174 26.5065 6.95344 26.3516 5.59534C25.1709 5.64574 23.6944 6.38284 22.8441 7.34494C22.0919 8.19274 21.4199 9.58234 21.5935 10.8891C22.9197 10.9845 24.2815 10.2438 25.1327 9.27544Z" fill="white"/>
<path d="M45.7799 9.00808C45.7799 10.0674 45.4504 10.8648 44.7924 11.4003C44.183 11.8944 43.3168 12.1419 42.195 12.1419C41.6387 12.1419 41.1627 12.1185 40.7642 12.0717V6.28378C41.284 6.20278 41.844 6.16138 42.4488 6.16138C43.5175 6.16138 44.323 6.38548 44.8662 6.83368C45.4747 7.34038 45.7799 8.06488 45.7799 9.00808ZM44.7486 9.03418C44.7486 8.34748 44.56 7.82098 44.183 7.45378C43.8059 7.08748 43.2552 6.90388 42.53 6.90388C42.222 6.90388 41.9598 6.92368 41.7423 6.96508V11.3652C41.8627 11.3832 42.083 11.3913 42.4031 11.3913C43.1516 11.3913 43.7294 11.1906 44.1363 10.7892C44.5432 10.3878 44.7486 9.80278 44.7486 9.03418Z" fill="white"/>
<path d="M51.2482 9.93334C51.2482 10.5858 51.055 11.1204 50.6686 11.5398C50.2635 11.9709 49.7268 12.186 49.0567 12.186C48.4108 12.186 47.8966 11.9799 47.513 11.5659C47.1303 11.1528 46.939 10.6317 46.939 10.0035C46.939 9.34654 47.1359 8.80744 47.5316 8.38894C47.9274 7.97044 48.4594 7.76074 49.1295 7.76074C49.7754 7.76074 50.2943 7.96684 50.6872 8.37994C51.0606 8.78134 51.2482 9.29974 51.2482 9.93334ZM50.2336 9.96394C50.2336 9.57244 50.1459 9.23674 49.9714 8.95684C49.766 8.61844 49.4739 8.44924 49.094 8.44924C48.7011 8.44924 48.4024 8.61844 48.1971 8.95684C48.0216 9.23674 47.9348 9.57784 47.9348 9.98104C47.9348 10.3725 48.0226 10.7082 48.1971 10.9881C48.409 11.3265 48.7039 11.4957 49.0847 11.4957C49.458 11.4957 49.7511 11.3238 49.962 10.9791C50.1431 10.6938 50.2336 10.3554 50.2336 9.96394Z" fill="white"/>
<path d="M58.5807 7.84705L57.2041 12.0896H56.3081L55.7378 10.2473C55.5931 9.78745 55.4755 9.33025 55.3841 8.87665H55.3663C55.2814 9.34285 55.1638 9.79915 55.0126 10.2473L54.4069 12.0896H53.5006L52.2061 7.84705H53.2113L53.7087 9.86395C53.8291 10.3409 53.9281 10.7954 54.0074 11.2256H54.0251C54.0979 10.871 54.2183 10.4192 54.3882 9.87295L55.0126 7.84795H55.8097L56.4079 9.82975C56.5526 10.313 56.6702 10.7783 56.7607 11.2265H56.7878C56.8541 10.79 56.9539 10.3247 57.0865 9.82975L57.6203 7.84795H58.5807V7.84705Z" fill="white"/>
<path d="M63.6514 12.0898H62.6733V9.65976C62.6733 8.91096 62.3784 8.53656 61.7866 8.53656C61.4964 8.53656 61.2621 8.63916 61.0801 8.84526C60.9 9.05136 60.8085 9.29436 60.8085 9.57246V12.0889H59.8304V9.05946C59.8304 8.68686 59.8183 8.28276 59.7949 7.84536H60.6545L60.7003 8.50866H60.7273C60.8412 8.30256 61.0111 8.13246 61.2341 7.99656C61.4992 7.83816 61.796 7.75806 62.1208 7.75806C62.5314 7.75806 62.873 7.88586 63.1446 8.14236C63.4825 8.45646 63.6514 8.92536 63.6514 9.54816V12.0898Z" fill="white"/>
<path d="M66.3488 12.0897H65.3716V5.90039H66.3488V12.0897Z" fill="white"/>
<path d="M72.1075 9.93334C72.1075 10.5858 71.9143 11.1204 71.5279 11.5398C71.1229 11.9709 70.5853 12.186 69.9161 12.186C69.2693 12.186 68.755 11.9799 68.3723 11.5659C67.9897 11.1528 67.7983 10.6317 67.7983 10.0035C67.7983 9.34654 67.9953 8.80744 68.391 8.38894C68.7867 7.97044 69.3187 7.76074 69.9879 7.76074C70.6347 7.76074 71.1527 7.96684 71.5466 8.37994C71.9199 8.78134 72.1075 9.29974 72.1075 9.93334ZM71.0921 9.96394C71.0921 9.57244 71.0043 9.23674 70.8298 8.95684C70.6254 8.61844 70.3323 8.44924 69.9534 8.44924C69.5595 8.44924 69.2609 8.61844 69.0565 8.95684C68.881 9.23674 68.7942 9.57784 68.7942 9.98104C68.7942 10.3725 68.8819 10.7082 69.0565 10.9881C69.2683 11.3265 69.5633 11.4957 69.9441 11.4957C70.3174 11.4957 70.6095 11.3238 70.8205 10.9791C71.0025 10.6938 71.0921 10.3554 71.0921 9.96394Z" fill="white"/>
<path d="M76.841 12.0897H75.9627L75.8899 11.601H75.8629C75.5623 11.9907 75.1339 12.186 74.5777 12.186C74.1623 12.186 73.8263 12.0573 73.5734 11.8017C73.3438 11.5695 73.229 11.2806 73.229 10.9377C73.229 10.4193 73.453 10.0242 73.9038 9.75064C74.3537 9.47704 74.9865 9.34294 75.8013 9.34924V9.27004C75.8013 8.71114 75.497 8.43214 74.8875 8.43214C74.4535 8.43214 74.0709 8.53744 73.7405 8.74624L73.5417 8.12704C73.9505 7.88314 74.4554 7.76074 75.0509 7.76074C76.2007 7.76074 76.7775 8.34574 76.7775 9.51574V11.0781C76.7775 11.502 76.799 11.8395 76.841 12.0897ZM75.8255 10.6317V9.97744C74.7466 9.95944 74.2071 10.2447 74.2071 10.8324C74.2071 11.0538 74.2687 11.2194 74.3947 11.3301C74.5207 11.4408 74.6813 11.4957 74.8726 11.4957C75.0873 11.4957 75.2879 11.43 75.4709 11.2995C75.6547 11.1681 75.7677 11.0016 75.8097 10.7973C75.8199 10.7514 75.8255 10.6956 75.8255 10.6317Z" fill="white"/>
<path d="M82.3992 12.0897H81.5312L81.4855 11.4084H81.4584C81.1812 11.9268 80.7089 12.186 80.0453 12.186C79.5152 12.186 79.0737 11.9853 78.7237 11.5839C78.3737 11.1825 78.1992 10.6614 78.1992 10.0215C78.1992 9.33479 78.3887 8.77859 78.7695 8.35379C79.1382 7.95779 79.5899 7.75979 80.1275 7.75979C80.7183 7.75979 81.1317 7.95149 81.3669 8.33579H81.3856V5.90039H82.3647V10.9467C82.3647 11.3598 82.3759 11.7405 82.3992 12.0897ZM81.3856 10.3005V9.59309C81.3856 9.47069 81.3763 9.37169 81.3585 9.29609C81.3035 9.06929 81.1849 8.87849 81.0048 8.72459C80.8228 8.57069 80.6035 8.49329 80.3505 8.49329C79.9856 8.49329 79.7 8.63279 79.49 8.91269C79.2819 9.19259 79.1764 9.54989 79.1764 9.98639C79.1764 10.4058 79.2763 10.746 79.4769 11.0079C79.6888 11.2869 79.9744 11.4264 80.3319 11.4264C80.6529 11.4264 80.9096 11.3103 81.1047 11.0772C81.2932 10.8621 81.3856 10.6029 81.3856 10.3005Z" fill="white"/>
<path d="M90.7648 9.93334C90.7648 10.5858 90.5716 11.1204 90.1852 11.5398C89.7801 11.9709 89.2444 12.186 88.5733 12.186C87.9284 12.186 87.4141 11.9799 87.0296 11.5659C86.6469 11.1528 86.4556 10.6317 86.4556 10.0035C86.4556 9.34654 86.6525 8.80744 87.0482 8.38894C87.444 7.97044 87.976 7.76074 88.647 7.76074C89.292 7.76074 89.8118 7.96684 90.2038 8.37994C90.5772 8.78134 90.7648 9.29974 90.7648 9.93334ZM89.7512 9.96394C89.7512 9.57244 89.6634 9.23674 89.4889 8.95684C89.2826 8.61844 88.9914 8.44924 88.6106 8.44924C88.2186 8.44924 87.92 8.61844 87.7137 8.95684C87.5382 9.23674 87.4514 9.57784 87.4514 9.98104C87.4514 10.3725 87.5392 10.7082 87.7137 10.9881C87.9256 11.3265 88.2205 11.4957 88.6013 11.4957C88.9746 11.4957 89.2686 11.3238 89.4796 10.9791C89.6597 10.6938 89.7512 10.3554 89.7512 9.96394Z" fill="white"/>
<path d="M96.0241 12.0898H95.0469V9.65976C95.0469 8.91096 94.7519 8.53656 94.1593 8.53656C93.869 8.53656 93.6347 8.63916 93.4537 8.84526C93.2726 9.05136 93.1821 9.29436 93.1821 9.57246V12.0889H92.203V9.05946C92.203 8.68686 92.1918 8.28276 92.1685 7.84536H93.0271L93.0729 8.50866H93.0999C93.2147 8.30256 93.3846 8.13246 93.6067 7.99656C93.8727 7.83816 94.1686 7.75806 94.4943 7.75806C94.9041 7.75806 95.2456 7.88586 95.5172 8.14236C95.856 8.45646 96.0241 8.92536 96.0241 9.54816V12.0898Z" fill="white"/>
<path d="M102.607 8.55363H101.53V10.6146C101.53 11.1384 101.721 11.4003 102.1 11.4003C102.276 11.4003 102.421 11.3859 102.536 11.3562L102.561 12.0717C102.368 12.1419 102.114 12.177 101.801 12.177C101.415 12.177 101.114 12.0636 100.897 11.8368C100.679 11.61 100.57 11.2284 100.57 10.6929V8.55363H99.9272V7.84713H100.57V7.06953L101.529 6.79053V7.84623H102.606V8.55363H102.607Z" fill="white"/>
<path d="M107.785 12.0897H106.806V9.67769C106.806 8.91719 106.511 8.53649 105.92 8.53649C105.467 8.53649 105.157 8.75699 104.987 9.19799C104.958 9.29069 104.941 9.40409 104.941 9.53729V12.0888H103.964V5.90039H104.941V8.45729H104.96C105.268 7.99199 105.709 7.75979 106.281 7.75979C106.686 7.75979 107.021 7.88759 107.287 8.14409C107.619 8.46359 107.785 8.93879 107.785 9.56699V12.0897Z" fill="white"/>
<path d="M113.126 9.76766C113.126 9.93686 113.113 10.0791 113.09 10.1952H110.157C110.17 10.6146 110.31 10.9341 110.581 11.1555C110.83 11.3535 111.15 11.4525 111.542 11.4525C111.976 11.4525 112.371 11.3859 112.728 11.2518L112.881 11.907C112.464 12.0816 111.973 12.1689 111.404 12.1689C110.723 12.1689 110.186 11.9754 109.798 11.5884C109.408 11.2014 109.215 10.6821 109.215 10.0305C109.215 9.39056 109.395 8.85776 109.758 8.43296C110.137 7.97936 110.649 7.75256 111.296 7.75256C111.929 7.75256 112.41 7.97936 112.734 8.43296C112.997 8.79296 113.126 9.23846 113.126 9.76766ZM112.193 9.52376C112.201 9.24386 112.136 9.00266 112.004 8.79926C111.834 8.53736 111.575 8.40596 111.225 8.40596C110.906 8.40596 110.646 8.53376 110.447 8.79026C110.284 8.99456 110.188 9.23846 110.157 9.52376H112.193Z" fill="white"/>
<path d="M50.0685 28.3537H47.9489L46.7879 24.8356H42.7521L41.6461 28.3537H39.5825L43.5809 16.3765H46.0505L50.0685 28.3537ZM46.4379 23.3596L45.3879 20.2321C45.2768 19.9126 45.0687 19.1602 44.7616 17.9758H44.7242C44.602 18.4852 44.405 19.2376 44.1344 20.2321L43.1031 23.3596H46.4379Z" fill="white"/>
<path d="M60.351 23.9292C60.351 25.398 59.9394 26.559 59.1162 27.4113C58.3789 28.17 57.4633 28.5489 56.3703 28.5489C55.1906 28.5489 54.3431 28.1403 53.827 27.3231H53.7897V31.8726H51.7998V22.5603C51.7998 21.6369 51.7746 20.6892 51.7261 19.7172H53.4761L53.5871 21.0861H53.6245C54.2881 20.0547 55.2951 19.5399 56.6466 19.5399C57.7031 19.5399 58.5851 19.9422 59.2907 20.7477C59.9982 21.5541 60.351 22.6143 60.351 23.9292ZM58.3238 23.9994C58.3238 23.1588 58.1278 22.4658 57.7339 21.9204C57.3037 21.3516 56.7259 21.0672 56.0017 21.0672C55.5107 21.0672 55.0646 21.2256 54.6661 21.5379C54.2666 21.8529 54.0053 22.2642 53.883 22.7736C53.8214 23.0112 53.7906 23.2056 53.7906 23.3586V24.7986C53.7906 25.4268 53.9903 25.9569 54.3898 26.3898C54.7893 26.8227 55.3082 27.0387 55.9466 27.0387C56.6961 27.0387 57.2794 26.7597 57.6966 26.2035C58.1147 25.6464 58.3238 24.912 58.3238 23.9994Z" fill="white"/>
<path d="M70.6523 23.9292C70.6523 25.398 70.2407 26.559 69.4166 27.4113C68.6802 28.17 67.7646 28.5489 66.6717 28.5489C65.4919 28.5489 64.6445 28.1403 64.1293 27.3231H64.0919V31.8726H62.1021V22.5603C62.1021 21.6369 62.0769 20.6892 62.0283 19.7172H63.7783L63.8894 21.0861H63.9267C64.5894 20.0547 65.5965 19.5399 66.9489 19.5399C68.0045 19.5399 68.8865 19.9422 69.5939 20.7477C70.2986 21.5541 70.6523 22.6143 70.6523 23.9292ZM68.6251 23.9994C68.6251 23.1588 68.4282 22.4658 68.0343 21.9204C67.6041 21.3516 67.0282 21.0672 66.303 21.0672C65.8111 21.0672 65.3659 21.2256 64.9665 21.5379C64.567 21.8529 64.3066 22.2642 64.1843 22.7736C64.1237 23.0112 64.0919 23.2056 64.0919 23.3586V24.7986C64.0919 25.4268 64.2917 25.9569 64.6893 26.3898C65.0887 26.8218 65.6077 27.0387 66.2479 27.0387C66.9974 27.0387 67.5807 26.7597 67.9979 26.2035C68.4161 25.6464 68.6251 24.912 68.6251 23.9994Z" fill="white"/>
<path d="M82.1695 24.9948C82.1695 26.0136 81.8027 26.8425 81.0663 27.4824C80.2571 28.1817 79.1305 28.5309 77.6829 28.5309C76.3464 28.5309 75.2749 28.2825 74.4639 27.7848L74.9249 26.1855C75.7985 26.6949 76.7571 26.9505 77.8015 26.9505C78.5509 26.9505 79.1343 26.7867 79.5533 26.4609C79.9705 26.1351 80.1787 25.6977 80.1787 25.1523C80.1787 24.6663 80.0069 24.2568 79.6625 23.9247C79.32 23.5926 78.7479 23.2839 77.9489 22.9986C75.7743 22.2165 74.6879 21.0708 74.6879 19.5642C74.6879 18.5796 75.0687 17.7723 75.8312 17.1441C76.5909 16.515 77.6045 16.2009 78.872 16.2009C80.0023 16.2009 80.9412 16.3908 81.6907 16.7697L81.1932 18.3339C80.4932 17.9667 79.7017 17.7831 78.816 17.7831C78.116 17.7831 77.5691 17.9496 77.1771 18.2808C76.8457 18.5769 76.6796 18.9378 76.6796 19.3653C76.6796 19.8387 76.8691 20.2302 77.2499 20.538C77.5812 20.8224 78.1832 21.1302 79.0568 21.4623C80.1255 21.8772 80.9104 22.3623 81.4153 22.9185C81.9184 23.4729 82.1695 24.1668 82.1695 24.9948Z" fill="white"/>
<path d="M88.7488 21.1572H86.5555V25.3503C86.5555 26.4168 86.9419 26.9496 87.7166 26.9496C88.0722 26.9496 88.3671 26.9199 88.6004 26.8605L88.6555 28.3176C88.2635 28.4589 87.7474 28.53 87.108 28.53C86.3222 28.53 85.708 28.2987 85.2647 27.837C84.8232 27.3744 84.6011 26.5986 84.6011 25.5087V21.1554H83.2944V19.7154H84.6011V18.1341L86.5555 17.5653V19.7154H88.7488V21.1572Z" fill="white"/>
<path d="M98.645 23.9643C98.645 25.2918 98.2511 26.3817 97.4652 27.234C96.6411 28.1115 95.5472 28.5489 94.1836 28.5489C92.8695 28.5489 91.8232 28.1286 91.043 27.288C90.2627 26.4474 89.8726 25.3863 89.8726 24.1074C89.8726 22.7691 90.2739 21.6729 91.0794 20.8206C91.883 19.9674 92.9675 19.5408 94.3311 19.5408C95.6452 19.5408 96.7027 19.9611 97.5007 20.8026C98.2642 21.6189 98.645 22.6728 98.645 23.9643ZM96.5804 24.0264C96.5804 23.2299 96.404 22.5468 96.0466 21.9771C95.6294 21.2877 95.033 20.9439 94.2602 20.9439C93.4603 20.9439 92.8527 21.2886 92.4355 21.9771C92.078 22.5477 91.9016 23.2416 91.9016 24.0624C91.9016 24.8589 92.078 25.542 92.4355 26.1108C92.8658 26.8002 93.4668 27.144 94.2424 27.144C95.0022 27.144 95.5986 26.793 96.0288 26.0928C96.3956 25.5123 96.5804 24.822 96.5804 24.0264Z" fill="white"/>
<path d="M105.113 21.4047C104.916 21.3696 104.706 21.3516 104.485 21.3516C103.785 21.3516 103.244 21.6063 102.863 22.1166C102.532 22.5666 102.366 23.1354 102.366 23.8221V28.3536H100.377L100.395 22.437C100.395 21.4416 100.37 20.5353 100.321 19.7181H102.054L102.127 21.3705H102.182C102.392 20.8026 102.723 20.3454 103.177 20.0025C103.62 19.6938 104.099 19.5399 104.615 19.5399C104.799 19.5399 104.965 19.5525 105.113 19.575V21.4047Z" fill="white"/>
<path d="M114.012 23.6268C114.012 23.9706 113.989 24.2604 113.939 24.4971H107.97C107.993 25.3503 108.282 26.0028 108.836 26.4528C109.339 26.8551 109.99 27.0567 110.788 27.0567C111.672 27.0567 112.479 26.9208 113.204 26.6481L113.516 27.9801C112.668 28.3365 111.668 28.5138 110.513 28.5138C109.124 28.5138 108.034 28.1196 107.241 27.3321C106.449 26.5446 106.053 25.4871 106.053 24.1605C106.053 22.8582 106.421 21.7737 107.16 20.9088C107.932 19.9854 108.977 19.5237 110.291 19.5237C111.582 19.5237 112.559 19.9854 113.223 20.9088C113.748 21.6423 114.012 22.5495 114.012 23.6268ZM112.115 23.1291C112.128 22.5603 111.998 22.0689 111.728 21.654C111.384 21.1203 110.855 20.8539 110.143 20.8539C109.492 20.8539 108.963 21.114 108.559 21.636C108.227 22.0509 108.03 22.5486 107.97 23.1282H112.115V23.1291Z" fill="white"/>
</svg>
