<svg width="121" height="97" viewBox="0 0 121 97" fill="none" xmlns="http://www.w3.org/2000/svg">
<path d="M59.7435 22.8338C60.4366 22.8338 61.0497 23.1607 61.4411 23.6678C61.6817 23.7484 61.9183 23.8491 62.1478 23.9699C65.3902 25.6824 69.4631 25.2482 71.6063 24.8378C72.8794 24.5854 74.1603 25.0196 75.0223 25.9901C75.8843 26.953 76.1689 28.2635 75.7814 29.4947L69.3898 49.926L88.2063 32.9516H99.5945C102.805 32.9516 105.415 35.5565 105.415 38.7609C105.415 41.9651 102.805 44.5693 99.5945 44.5693H93.2914L78.4768 58.3104H94.976C96.9452 58.3104 98.795 59.1708 100.06 60.6782L104.474 65.9347C105.399 67.0318 105.597 68.5234 104.988 69.8256C104.379 71.1278 103.106 71.9328 101.667 71.9328V71.9251H99.3486L89.8109 90.8043C87.8899 94.6164 84.0306 96.9842 79.7521 96.9842L79.76 97H38.7227C35.2984 97 32.1026 95.4767 29.9515 92.809L9.83893 67.8848C6.87616 68.4109 3.49623 67.9 1.5049 65.5163C0.318786 64.0956 -0.179659 62.4382 0.0575808 60.7414C0.366018 58.6183 1.86076 56.5186 4.17787 54.9637L4.36014 54.8535C10.5603 51.5465 19.2122 42.0599 24.2024 34.8146C24.3859 34.548 24.594 34.3026 24.8226 34.0815C24.9431 33.7009 25.1699 33.3495 25.4992 33.078C26.1219 32.5592 26.9523 32.4585 27.6578 32.7381C27.9546 32.703 28.2564 32.6941 28.5598 32.715C45.3256 33.8989 52.1669 28.3269 56.6906 24.649L56.8412 24.5225C57.1752 24.2517 57.5363 24.0292 57.9147 23.8573C58.2907 23.2431 58.9674 22.8338 59.7435 22.8338ZM29.604 63.5431C23.6648 60.5835 17.8912 63.6457 14.0635 66.2107L14.0249 66.2362L33.2972 90.1177C34.6258 91.7672 36.6033 92.7064 38.7227 92.7064H79.76C82.4086 92.7064 84.7898 91.2384 85.984 88.8785L94.5481 71.9251H66.0928C65.1186 76.1303 61.3391 79.2724 56.8327 79.2724C52.1022 79.2724 48.1705 75.8101 47.4468 71.29C44.3236 70.0683 36.0926 66.7809 29.604 63.5431ZM56.8327 64.5852C55.4065 64.5853 54.1144 65.1587 53.1735 66.0858C53.1599 66.0998 53.1457 66.113 53.1318 66.1267C52.1979 67.0676 51.6211 68.3617 51.6211 69.7862C51.6211 72.6512 53.962 74.9872 56.8327 74.9874C59.7035 74.9874 62.0443 72.6513 62.0443 69.7862C62.0443 66.9212 59.7035 64.5852 56.8327 64.5852ZM68.4112 67.6474H97.7866C97.9472 67.6286 98.1101 67.6295 98.273 67.6474H100.314L96.7704 63.4252C96.3275 62.8964 95.6719 62.5881 94.976 62.5881H73.8653L68.4112 67.6474ZM27.0183 38.2676C21.5755 45.8936 13.0398 55.0218 6.47937 58.5786C5.26149 59.4152 4.42335 60.4735 4.29681 61.3495C4.24941 61.6574 4.25754 62.1386 4.78723 62.7777C5.74849 63.9301 8.02995 63.9888 9.81655 63.4992C9.95527 63.4407 10.0979 63.3969 10.2428 63.3689C10.6963 63.2148 11.1043 63.0255 11.4307 62.8094L11.6516 62.659C14.3721 60.8358 22.6369 55.2954 31.5024 59.7232C37.0618 62.5001 44.1423 65.3913 47.7966 66.8435C48.0557 66.0526 48.4158 65.3075 48.8625 64.6229L27.0183 38.2676ZM62.3378 62.0586C63.4159 62.8256 64.3277 63.8097 65.0069 64.949L91.6069 40.2762H99.5945C100.441 40.2762 101.121 39.5889 101.121 38.7523C101.121 37.9159 100.432 37.2293 99.5945 37.2293H89.8592L62.3378 62.0586ZM57.6004 29.4046C53.0197 32.9508 45.7193 37.4386 31.6599 37.1492L51.9609 61.6424C53.3864 60.7901 55.0529 60.2997 56.8327 60.2997C57.091 60.2997 57.3473 60.3095 57.6004 60.3298V29.4046ZM61.8867 56.6949L63.1247 55.5781L71.3692 29.2265C68.6433 29.6409 65.1686 29.7258 61.8867 28.5343V56.6949ZM94.1535 2.86492C94.889 2.80967 95.5296 3.35431 95.5849 4.08041C95.6561 4.91702 95.7826 5.75377 95.9724 6.5746C98.1077 15.8879 107.44 21.7284 116.772 19.5974C117.594 19.408 118.401 19.1629 119.184 18.8551C119.864 18.5949 120.639 18.9264 120.908 19.6128C121.177 20.2994 120.837 21.0656 120.149 21.3339C119.247 21.6811 118.314 21.9654 117.365 22.1864H117.373C106.609 24.6488 95.8459 17.9083 93.3784 7.16654C93.1649 6.21953 93.0147 5.2567 92.9356 4.29391C92.8723 3.55995 93.4259 2.92813 94.1535 2.86492ZM99.5075 1.68103C100.243 1.66538 100.852 2.24969 100.868 2.98361C100.884 3.78859 100.986 4.60152 101.168 5.39071C102.647 11.8468 109.116 15.8953 115.586 14.4194C116.384 14.2378 117.167 13.9695 117.911 13.6301C118.575 13.3224 119.374 13.6146 119.674 14.2853C119.975 14.9562 119.69 15.7457 119.018 16.0457C118.116 16.4561 117.159 16.7795 116.179 17.0084H116.187C108.286 18.8158 100.385 13.8674 98.5743 5.98265C98.3529 5.01186 98.2264 4.02492 98.2026 3.03834C98.1868 2.30446 98.772 1.68892 99.5075 1.68103ZM105.067 0.441646C105.795 0.52853 106.317 1.19162 106.23 1.91766C106.135 2.68324 106.182 3.44913 106.356 4.20682C107.179 7.80572 110.786 10.0632 114.392 9.23449C115.151 9.06086 115.862 8.76078 116.511 8.35045C117.128 7.95582 117.95 8.13711 118.353 8.75273C118.749 9.36835 118.567 10.1893 117.951 10.5918C117.041 11.1679 116.044 11.5865 114.992 11.8312V11.8227C109.955 12.975 104.917 9.81839 103.762 4.79876C103.517 3.74126 103.462 2.6678 103.588 1.60241C103.675 0.876291 104.34 0.354827 105.067 0.441646ZM112.905 0C114.402 0 115.617 1.2119 115.617 2.70692C115.617 4.20203 114.402 5.4146 112.905 5.4146C111.406 5.4145 110.192 4.20198 110.192 2.70692C110.192 1.21196 111.407 9.76196e-05 112.905 0Z" fill="#7B6A64"/>
</svg>
