<svg width="124" height="36" viewBox="0 0 124 36" fill="none" xmlns="http://www.w3.org/2000/svg">
<path d="M119.407 36H4.59259C2.06781 36 0 33.9739 0 31.5V4.5C0 2.02613 2.06781 3.33786e-06 4.59259 3.33786e-06H119.407C121.932 3.33786e-06 124 2.02613 124 4.5V31.5C124 33.9739 121.932 36 119.407 36Z" fill="black"/>
<path d="M119.407 0.721127C121.534 0.721127 123.264 2.4165 123.264 4.5V31.5C123.264 33.5835 121.534 35.2789 119.407 35.2789H4.59259C2.46622 35.2789 0.735963 33.5835 0.735963 31.5V4.5C0.735963 2.4165 2.46622 0.721127 4.59259 0.721127H119.407ZM119.407 3.33786e-06H4.59259C2.06781 3.33786e-06 0 2.02613 0 4.5V31.5C0 33.9739 2.06781 36 4.59259 36H119.407C121.932 36 124 33.9739 124 31.5V4.5C124 2.02613 121.932 3.33786e-06 119.407 3.33786e-06Z" fill="#A6A6A6"/>
<path d="M8.89569 6.78477C8.62587 7.06152 8.46973 7.49239 8.46973 8.0504V27.9539C8.46973 28.5119 8.62587 28.9428 8.89569 29.2195L8.96228 29.2803L20.345 18.1315V17.8683L8.96228 6.71952L8.89569 6.78477Z" fill="white"/>
<path d="M25.5127 21.8497L21.7227 18.1316V17.8684L25.5173 14.1502L25.6022 14.1986L30.0961 16.704C31.3786 17.415 31.3786 18.585 30.0961 19.3005L25.6022 21.8014L25.5127 21.8497Z" fill="white"/>
<path d="M24.9134 22.4936L21.0338 18.6922L9.58447 29.9119C10.0104 30.3506 10.7051 30.4035 11.495 29.9647L24.9134 22.4936Z" fill="white"/>
<path d="M24.9134 13.5062L11.495 6.03512C10.7051 5.60087 10.0104 5.65374 9.58447 6.09249L21.0338 17.3076L24.9134 13.5062Z" fill="white"/>
<path d="M43.5537 9.21934C43.5537 9.97084 43.3241 10.5727 42.8717 11.0216C42.3516 11.5537 41.6742 11.8215 40.8441 11.8215C40.0507 11.8215 39.3733 11.5492 38.8176 11.0126C38.2608 10.4681 37.9829 9.79984 37.9829 8.99997C37.9829 8.20009 38.2608 7.53184 38.8176 6.99184C39.3733 6.45072 40.0507 6.17847 40.8441 6.17847C41.2391 6.17847 41.6156 6.25834 41.975 6.40684C42.3332 6.55647 42.6249 6.75897 42.8361 7.00872L42.3562 7.48347C41.9876 7.05709 41.4859 6.84672 40.8441 6.84672C40.2654 6.84672 39.7637 7.04472 39.3377 7.44409C38.9164 7.84459 38.7051 8.36322 38.7051 8.99997C38.7051 9.63672 38.9164 10.1598 39.3377 10.5603C39.7637 10.9552 40.2654 11.1577 40.8441 11.1577C41.4584 11.1577 41.975 10.9552 42.3826 10.5558C42.6513 10.2915 42.804 9.92697 42.8442 9.46122H40.8441V8.81097H43.5124C43.5445 8.95159 43.5537 9.08772 43.5537 9.21934Z" fill="white" stroke="white" stroke-width="0.125217" stroke-miterlimit="10"/>
<path d="M47.7873 6.96487H45.2808V8.67487H47.5404V9.32512H45.2808V11.0351H47.7873V11.6977H44.5713V6.30225H47.7873V6.96487Z" fill="white" stroke="white" stroke-width="0.125217" stroke-miterlimit="10"/>
<path d="M50.7743 11.6977H50.0647V6.96487H48.5273V6.30225H52.3128V6.96487H50.7743V11.6977Z" fill="white" stroke="white" stroke-width="0.125217" stroke-miterlimit="10"/>
<path d="M55.0527 11.6977V6.30225H55.7611V11.6977H55.0527Z" fill="white" stroke="white" stroke-width="0.125217" stroke-miterlimit="10"/>
<path d="M58.9012 11.6977H58.1974V6.96487H56.6543V6.30225H60.4443V6.96487H58.9012V11.6977Z" fill="white" stroke="white" stroke-width="0.125217" stroke-miterlimit="10"/>
<path d="M67.611 11.0036C67.068 11.5492 66.3951 11.8215 65.5926 11.8215C64.7854 11.8215 64.1126 11.5492 63.5696 11.0036C63.0276 10.4591 62.7578 9.79084 62.7578 8.99997C62.7578 8.20909 63.0276 7.54084 63.5696 6.99634C64.1126 6.45072 64.7854 6.17847 65.5926 6.17847C66.3906 6.17847 67.0634 6.45072 67.6064 7.00084C68.153 7.54984 68.4228 8.21359 68.4228 8.99997C68.4228 9.79084 68.153 10.4591 67.611 11.0036ZM64.0943 10.5513C64.503 10.9552 65.0001 11.1577 65.5926 11.1577C66.1804 11.1577 66.6822 10.9552 67.0863 10.5513C67.4939 10.1475 67.7006 9.62884 67.7006 8.99997C67.7006 8.37109 67.4939 7.85247 67.0863 7.44859C66.6822 7.04472 66.1804 6.84222 65.5926 6.84222C65.0001 6.84222 64.503 7.04472 64.0943 7.44859C63.6867 7.85247 63.48 8.37109 63.48 8.99997C63.48 9.62884 63.6867 10.1475 64.0943 10.5513Z" fill="white" stroke="white" stroke-width="0.125217" stroke-miterlimit="10"/>
<path d="M69.418 11.6977V6.30225H70.2791L72.9566 10.4985H72.9876L72.9566 9.46124V6.30225H73.665V11.6977H72.9256L70.1218 7.2945H70.0908L70.1218 8.33624V11.6977H69.418Z" fill="white" stroke="white" stroke-width="0.125217" stroke-miterlimit="10"/>
<path d="M62.583 19.5772C60.4257 19.5772 58.6633 21.1859 58.6633 23.4056C58.6633 25.6072 60.4257 27.2328 62.583 27.2328C64.745 27.2328 66.5074 25.6072 66.5074 23.4056C66.5074 21.1859 64.745 19.5772 62.583 19.5772ZM62.583 25.7253C61.3993 25.7253 60.3809 24.7679 60.3809 23.4056C60.3809 22.0252 61.3993 21.0847 62.583 21.0847C63.7668 21.0847 64.7898 22.0252 64.7898 23.4056C64.7898 24.7679 63.7668 25.7253 62.583 25.7253ZM54.0305 19.5772C51.8685 19.5772 50.1107 21.1859 50.1107 23.4056C50.1107 25.6072 51.8685 27.2328 54.0305 27.2328C56.1913 27.2328 57.9503 25.6072 57.9503 23.4056C57.9503 21.1859 56.1913 19.5772 54.0305 19.5772ZM54.0305 25.7253C52.8456 25.7253 51.8238 24.7679 51.8238 23.4056C51.8238 22.0252 52.8456 21.0847 54.0305 21.0847C55.2142 21.0847 56.2326 22.0252 56.2326 23.4056C56.2326 24.7679 55.2142 25.7253 54.0305 25.7253ZM43.8533 20.7506V22.3773H47.8179C47.7019 23.2863 47.3919 23.9546 46.9166 24.4203C46.3379 24.9828 45.4366 25.6072 43.8533 25.6072C41.4135 25.6072 39.503 23.6778 39.503 21.2872C39.503 18.8966 41.4135 16.9672 43.8533 16.9672C45.1725 16.9672 46.1324 17.4723 46.8408 18.1271L48.0108 16.9807C47.0199 16.0537 45.7018 15.3416 43.8533 15.3416C40.5076 15.3416 37.6958 18.0089 37.6958 21.2872C37.6958 24.5654 40.5076 27.2328 43.8533 27.2328C45.6616 27.2328 47.0199 26.6523 48.0877 25.5633C49.1819 24.4912 49.5229 22.9837 49.5229 21.7664C49.5229 21.3884 49.4907 21.0408 49.4333 20.7506H43.8533ZM85.4691 22.0117C85.1464 21.1556 84.151 19.5772 82.1234 19.5772C80.1141 19.5772 78.4413 21.1286 78.4413 23.4056C78.4413 25.5498 80.0969 27.2328 82.3163 27.2328C84.1108 27.2328 85.1464 26.1607 85.5724 25.5363L84.2406 24.6667C83.7962 25.3034 83.1911 25.7253 82.3163 25.7253C81.4471 25.7253 80.8237 25.3349 80.4241 24.5654L85.6493 22.4471L85.4691 22.0117ZM80.1417 23.2863C80.0969 21.8103 81.3116 21.0543 82.1819 21.0543C82.8639 21.0543 83.4426 21.3884 83.6355 21.8666L80.1417 23.2863ZM75.8947 26.9999H77.6123V15.7499H75.8947V26.9999ZM73.0817 20.4299H73.0243C72.6385 19.9822 71.9026 19.5772 70.9703 19.5772C69.0138 19.5772 67.225 21.2602 67.225 23.4179C67.225 25.5633 69.0138 27.2328 70.9703 27.2328C71.9026 27.2328 72.6385 26.8244 73.0243 26.3632H73.0817V26.9122C73.0817 28.3758 72.2837 29.1622 70.9967 29.1622C69.9473 29.1622 69.2963 28.4197 69.0276 27.7953L67.5339 28.4062C67.9644 29.4209 69.1045 30.6697 70.9967 30.6697C73.0105 30.6697 74.7098 29.5087 74.7098 26.6838V19.8101H73.0817V20.4299ZM71.1172 25.7253C69.9335 25.7253 68.9426 24.7544 68.9426 23.4179C68.9426 22.0691 69.9335 21.0847 71.1172 21.0847C72.2838 21.0847 73.2034 22.0691 73.2034 23.4179C73.2034 24.7544 72.2838 25.7253 71.1172 25.7253ZM93.5107 15.7499H89.4026V26.9999H91.1157V22.7373H93.5107C95.4132 22.7373 97.2789 21.3884 97.2789 19.2431C97.2789 17.0988 95.4086 15.7499 93.5107 15.7499ZM93.5555 21.1724H91.1157V17.3148H93.5555C94.8345 17.3148 95.5647 18.3554 95.5647 19.2431C95.5647 20.1138 94.8345 21.1724 93.5555 21.1724ZM104.145 19.5558C102.907 19.5558 101.62 20.0913 101.091 21.2782L102.611 21.9026C102.938 21.2782 103.54 21.0757 104.176 21.0757C105.065 21.0757 105.966 21.5988 105.98 22.5224V22.6406C105.67 22.4651 105.006 22.2052 104.19 22.2052C102.552 22.2052 100.884 23.0883 100.884 24.7364C100.884 26.2439 102.225 27.2148 103.733 27.2148C104.885 27.2148 105.521 26.7052 105.921 26.1123H105.98V26.9819H107.634V22.6664C107.634 20.6718 106.114 19.5558 104.145 19.5558ZM103.938 25.7208C103.378 25.7208 102.597 25.4486 102.597 24.7679C102.597 23.8972 103.571 23.5631 104.414 23.5631C105.168 23.5631 105.521 23.7262 105.98 23.9411C105.845 24.9828 104.93 25.7208 103.938 25.7208ZM113.662 19.8022L111.693 24.6791H111.634L109.599 19.8022H107.751L110.81 26.6174L109.065 30.4098H110.855L115.568 19.8022H113.662ZM98.2204 26.9999H99.938V15.7499H98.2204V26.9999Z" fill="white"/>
</svg>
