<svg width="50" height="43" viewBox="0 0 50 43" fill="none" xmlns="http://www.w3.org/2000/svg">
<path d="M22.8516 18.2596C22.6891 18.3349 22.5067 18.356 22.3314 18.3195C22.156 18.2831 21.9971 18.1911 21.8781 18.0573L15.2114 10.5573C15.1047 10.4372 15.0349 10.2888 15.0105 10.1301C14.9862 9.97126 15.0082 9.80881 15.074 9.66226C15.1398 9.51571 15.2466 9.3913 15.3815 9.30402C15.5163 9.21674 15.6736 9.1703 15.8342 9.17029H18.2068L17.5089 4.2881C17.4835 4.11079 17.516 3.93003 17.6014 3.77261C17.6869 3.61519 17.8208 3.48948 17.9833 3.41413C18.1457 3.33877 18.3282 3.31778 18.5035 3.35426C18.6789 3.39073 18.8379 3.48274 18.9568 3.61664L25.6235 11.1166C25.7302 11.2367 25.8 11.385 25.8243 11.5438C25.8487 11.7026 25.8267 11.865 25.7609 12.0116C25.6951 12.1581 25.5884 12.2825 25.4535 12.3698C25.3187 12.4571 25.1615 12.5036 25.0009 12.5036H22.6284L23.3263 17.3858C23.3516 17.5631 23.3191 17.7439 23.2336 17.9013C23.1481 18.0586 23.0141 18.1843 22.8516 18.2596ZM23.1454 10.837L19.5509 6.79279L19.9926 9.8854C20.0095 10.0036 20.0008 10.124 19.9671 10.2386C19.9334 10.3531 19.8754 10.459 19.7972 10.5492C19.719 10.6394 19.6223 10.7118 19.5137 10.7613C19.405 10.8109 19.287 10.8365 19.1676 10.8365H17.6899L21.2844 14.8803L20.8426 11.7877C20.8258 11.6695 20.8345 11.5491 20.8682 11.4345C20.9019 11.32 20.9599 11.214 21.0381 11.1238C21.1163 11.0337 21.213 10.9613 21.3216 10.9118C21.4303 10.8622 21.5483 10.8365 21.6677 10.8365L23.1454 10.837Z" fill="white"/>
<path d="M17.9269 21.2408C17.8449 21.2408 17.7633 21.2287 17.6848 21.2048C15.4438 20.5246 13.4836 19.1367 12.0975 17.249C10.7115 15.3612 9.97441 13.0753 9.99656 10.7335C10.0187 8.39164 10.799 6.12004 12.2204 4.25886C13.6419 2.39768 15.6281 1.04711 17.8815 0.409433C20.1349 -0.228245 22.5343 -0.118709 24.7203 0.721635C26.9062 1.56198 28.7611 3.0879 30.0071 5.07085C31.253 7.0538 31.8231 9.38705 31.6317 11.7211C31.4404 14.0552 30.4981 16.2645 28.9458 18.0181C28.7468 18.243 28.5363 18.462 28.3201 18.6689C28.1597 18.8175 27.9473 18.8971 27.7288 18.8906C27.5103 18.884 27.303 18.7918 27.1518 18.6339C27.0006 18.476 26.9176 18.2649 26.9205 18.0463C26.9235 17.8277 27.0123 17.619 27.1677 17.4652C27.351 17.2898 27.5294 17.1043 27.6981 16.9131C29.0088 15.4303 29.8039 13.5629 29.9645 11.5905C30.1251 9.61798 29.6426 7.64655 28.5891 5.97125C27.5356 4.29596 25.9679 3.00693 24.1205 2.29713C22.2732 1.58732 20.2457 1.49493 18.3415 2.03377C16.4372 2.57261 14.7587 3.7137 13.5572 5.28623C12.3558 6.85876 11.6959 8.77814 11.6764 10.757C11.657 12.7359 12.279 14.6679 13.4493 16.2638C14.6197 17.8596 16.2754 19.0335 18.1687 19.6097C18.3602 19.6675 18.5245 19.7922 18.6316 19.9611C18.7388 20.13 18.7816 20.3318 18.7523 20.5297C18.723 20.7275 18.6234 20.9083 18.4719 21.0388C18.3204 21.1694 18.1269 21.2411 17.9269 21.2408Z" fill="white"/>
<path d="M5.71469 26.6064L13.9149 25.4349L22.6705 21.0571C23.5255 20.631 24.4676 20.4086 25.4229 20.4074H36.301C37.7984 20.4043 39.2579 20.8789 40.4671 21.7622L43.1092 23.6838L48.7728 27.1991C48.8813 27.2664 48.9729 27.3578 49.0405 27.4662C49.1081 27.5746 49.1498 27.697 49.1625 27.8241L49.9959 36.1574C50.0109 36.3079 49.9847 36.4597 49.9201 36.5964C49.8555 36.7332 49.7548 36.8498 49.629 36.9337L47.3309 38.4658C47.0255 39.7093 46.3193 40.8177 45.3214 41.6201C44.3235 42.4225 43.0893 42.8741 41.8092 42.9054C40.5291 42.9367 39.2743 42.5459 38.2383 41.7932C37.2024 41.0405 36.443 39.9679 36.0772 38.7408H14.7562C14.3913 39.9638 13.6354 41.0335 12.6043 41.7857C11.5732 42.538 10.3239 42.9313 9.0478 42.9054C7.77174 42.8794 6.53939 42.4357 5.53969 41.6422C4.53999 40.8488 3.82813 39.7493 3.51323 38.5124L0.461147 36.9861C0.322639 36.9169 0.206131 36.8106 0.12468 36.6789C0.0432281 36.5473 5.34058e-05 36.3956 0 36.2408V33.1954C6.10352e-05 31.5933 0.578018 30.0449 1.62777 28.8345C2.67752 27.6241 4.12862 26.833 5.71469 26.6064ZM27.5 22.0741H25.4229C24.7263 22.0749 24.0393 22.2371 23.4158 22.5478L16.3389 26.0864L16.8005 26.2407L27.5 26.2048V22.0741ZM47.4571 36.379L48.2877 35.8252L47.545 28.3989L42.7423 25.4178L41.0402 26.9849C41.9882 28.1456 42.5041 29.5992 42.5 31.0977V31.3013C43.769 31.4865 44.9417 32.084 45.8375 33.0016C46.7334 33.9192 47.3025 35.106 47.4571 36.379ZM41.6667 41.2408C42.4908 41.2408 43.2964 40.9964 43.9816 40.5385C44.6668 40.0807 45.2008 39.43 45.5162 38.6686C45.8316 37.9072 45.9141 37.0695 45.7533 36.2612C45.5925 35.453 45.1957 34.7105 44.613 34.1278C44.0303 33.5451 43.2878 33.1482 42.4796 32.9875C41.6713 32.8267 40.8335 32.9092 40.0722 33.2246C39.3108 33.54 38.6601 34.074 38.2022 34.7592C37.7444 35.4444 37.5 36.25 37.5 37.0741C37.5013 38.1788 37.9407 39.2379 38.7218 40.019C39.5029 40.8001 40.562 41.2395 41.6667 41.2408ZM29.1667 37.0741H35.8334C35.8352 35.672 36.3413 34.3173 37.2593 33.2574C38.1773 32.1976 39.4459 31.5032 40.8334 31.3013V31.0977C40.8368 29.8892 40.3862 28.7235 39.571 27.8315L29.1667 27.8657V37.0741ZM29.1667 26.1991L39.4697 26.1649L41.3311 24.4514L39.4873 23.1101C38.5625 22.4346 37.4463 22.0716 36.301 22.0741H29.1667V26.1991ZM15 37.0741H27.5V27.8716L17.095 27.906C15.7362 29.8646 15.0055 32.1903 15 34.5741V37.0741ZM9.16668 41.2408C9.99076 41.2408 10.7963 40.9964 11.4816 40.5385C12.1668 40.0807 12.7008 39.43 13.0162 38.6686C13.3315 37.9072 13.4141 37.0695 13.2533 36.2612C13.0925 35.453 12.6957 34.7105 12.113 34.1278C11.5302 33.5451 10.7878 33.1482 9.97955 32.9875C9.1713 32.8267 8.33352 32.9092 7.57216 33.2246C6.8108 33.54 6.16005 34.074 5.70221 34.7592C5.24437 35.4444 5 36.25 5 37.0741C5.00124 38.1788 5.44063 39.2379 6.22176 40.019C7.0029 40.8001 8.06199 41.2395 9.16668 41.2408ZM1.66667 35.7258L3.35646 36.5706C3.45279 35.448 3.87251 34.3773 4.56481 33.4882C5.2571 32.5991 6.19228 31.9298 7.25713 31.5613C8.32197 31.1928 9.47082 31.1408 10.5646 31.4117C11.6583 31.6827 12.6501 32.2649 13.4198 33.0878C13.6457 31.1101 14.3074 29.2071 15.3573 27.516L14.0899 27.0936L5.95063 28.2563C4.76168 28.4261 3.67388 29.0191 2.88694 29.9264C2.10001 30.8337 1.66673 31.9944 1.66667 33.1954V35.7258Z" fill="white"/>
<path d="M23.334 29.5741H25.0007C25.2217 29.5741 25.4336 29.6619 25.5899 29.8182C25.7462 29.9745 25.834 30.1865 25.834 30.4075C25.834 30.6285 25.7462 30.8404 25.5899 30.9967C25.4336 31.153 25.2217 31.2408 25.0007 31.2408H23.334C23.113 31.2408 22.901 31.153 22.7447 30.9967C22.5884 30.8404 22.5007 30.6285 22.5007 30.4075C22.5007 30.1865 22.5884 29.9745 22.7447 29.8182C22.901 29.6619 23.113 29.5741 23.334 29.5741Z" fill="white"/>
<path d="M38.3337 31.2408H36.667C36.446 31.2408 36.234 31.153 36.0777 30.9967C35.9215 30.8404 35.8337 30.6285 35.8337 30.4075C35.8337 30.1865 35.9215 29.9745 36.0777 29.8182C36.234 29.6619 36.446 29.5741 36.667 29.5741H38.3337C38.5547 29.5741 38.7666 29.6619 38.9229 29.8182C39.0792 29.9745 39.167 30.1865 39.167 30.4075C39.167 30.6285 39.0792 30.8404 38.9229 30.9967C38.7666 31.153 38.5547 31.2408 38.3337 31.2408Z" fill="white"/>
<path d="M41.668 34.5743C42.1624 34.5743 42.6458 34.7209 43.0569 34.9956C43.468 35.2703 43.7885 35.6607 43.9777 36.1176C44.1669 36.5744 44.2164 37.077 44.1199 37.562C44.0235 38.0469 43.7854 38.4924 43.4357 38.842C43.0861 39.1917 42.6406 39.4298 42.1557 39.5262C41.6707 39.6227 41.1681 39.5732 40.7113 39.384C40.2544 39.1947 39.864 38.8743 39.5893 38.4632C39.3146 38.0521 39.168 37.5687 39.168 37.0743C39.1687 36.4115 39.4323 35.776 39.901 35.3073C40.3697 34.8386 41.0052 34.575 41.668 34.5743ZM41.668 37.9076C41.8328 37.9076 41.9939 37.8587 42.1309 37.7672C42.268 37.6756 42.3748 37.5454 42.4379 37.3932C42.5009 37.2409 42.5174 37.0733 42.4853 36.9117C42.4531 36.75 42.3738 36.6016 42.2572 36.485C42.1407 36.3685 41.9922 36.2891 41.8305 36.2569C41.6689 36.2248 41.5013 36.2413 41.3491 36.3044C41.1968 36.3674 41.0666 36.4743 40.9751 36.6113C40.8835 36.7483 40.8346 36.9094 40.8346 37.0743C40.8349 37.2952 40.9228 37.507 41.079 37.6633C41.2352 37.8195 41.447 37.9074 41.668 37.9076Z" fill="white"/>
<path d="M9.16797 34.5742C9.66242 34.5742 10.1458 34.7209 10.5569 34.9956C10.968 35.2703 11.2884 35.6607 11.4777 36.1175C11.6669 36.5744 11.7164 37.077 11.6199 37.562C11.5235 38.0469 11.2854 38.4924 10.9357 38.842C10.5861 39.1916 10.1406 39.4297 9.6557 39.5262C9.17074 39.6227 8.66808 39.5732 8.21126 39.3839C7.75445 39.1947 7.364 38.8743 7.0893 38.4632C6.81459 38.052 6.66797 37.5687 6.66797 37.0742C6.66871 36.4114 6.93234 35.776 7.40102 35.3073C7.8697 34.8386 8.50516 34.575 9.16797 34.5742ZM9.16797 37.9076C9.33279 37.9076 9.4939 37.8587 9.63094 37.7671C9.76799 37.6756 9.8748 37.5454 9.93787 37.3931C10.0009 37.2409 10.0174 37.0733 9.98529 36.9117C9.95314 36.75 9.87377 36.6015 9.75723 36.485C9.64068 36.3684 9.4922 36.2891 9.33055 36.2569C9.1689 36.2248 9.00134 36.2413 8.84907 36.3043C8.6968 36.3674 8.56665 36.4742 8.47508 36.6113C8.38351 36.7483 8.33464 36.9094 8.33464 37.0742C8.33488 37.2952 8.42276 37.507 8.57899 37.6632C8.73521 37.8195 8.94703 37.9073 9.16797 37.9076Z" fill="white"/>
</svg>
